<svg width="221" height="195" viewBox="0 0 221 195" fill="none" xmlns="http://www.w3.org/2000/svg">
<g clip-path="url(#clip0_359_3826)">
<path d="M221 195H0C2.438 187.477 5.44066 181.094 11.7872 179.201C21.0717 176.436 30.8972 184.041 40.1611 181.181C45.424 179.558 49.5676 174.829 53.9212 170.901C70.3475 156.082 92.8571 151.703 112.294 159.546C122.454 163.644 131.712 170.81 142.119 173.857C155.577 177.798 169.652 174.53 183.491 173.991C196.97 173.467 216.283 180.113 221 195Z" fill="#F3F5FD"/>
<path d="M163.771 0H-0.26416V135.384H163.771V0Z" fill="#DEE8F5"/>
<path d="M163.771 0H-0.26416V11.1522H163.771V0Z" fill="#C1D8ED"/>
<path d="M158.277 8.37446C159.633 8.37446 160.732 7.12172 160.732 5.57639C160.732 4.03106 159.633 2.77832 158.277 2.77832C156.921 2.77832 155.822 4.03106 155.822 5.57639C155.822 7.12172 156.921 8.37446 158.277 8.37446Z" fill="white"/>
<path d="M137.475 24.5371H114.813V111.809H137.475V24.5371Z" fill="#2743FD"/>
<path d="M114.813 103.434H10.9165V111.34H114.813V103.434Z" fill="#C1D8ED"/>
<path d="M137.475 20.8037H10.9124V28.2708H137.475V20.8037Z" fill="white"/>
<path d="M10.9124 20.8037V111.809H137.475V20.8037" stroke="white" stroke-width="2.813" stroke-miterlimit="10"/>
<path d="M32.0293 24.5371V111.809" stroke="white" stroke-width="2.813" stroke-miterlimit="10"/>
<path d="M137.475 36.1768H10.9165" stroke="white" stroke-width="2.813" stroke-miterlimit="10"/>
<path d="M137.475 44.5762H10.9165" stroke="white" stroke-width="2.813" stroke-miterlimit="10"/>
<path d="M137.475 52.9766H10.9165" stroke="white" stroke-width="2.813" stroke-miterlimit="10"/>
<path d="M137.475 61.375H10.9165" stroke="white" stroke-width="2.813" stroke-miterlimit="10"/>
<path d="M137.475 69.7754H10.9165" stroke="white" stroke-width="2.813" stroke-miterlimit="10"/>
<path d="M137.475 78.1748H10.9165" stroke="white" stroke-width="2.813" stroke-miterlimit="10"/>
<path d="M137.475 86.5742H10.9165" stroke="white" stroke-width="2.813" stroke-miterlimit="10"/>
<path d="M137.475 94.9736H10.9165" stroke="white" stroke-width="2.813" stroke-miterlimit="10"/>
<path d="M137.475 103.373H10.9165" stroke="white" stroke-width="2.813" stroke-miterlimit="10"/>
<path d="M91.5415 24.5371V111.809" stroke="white" stroke-width="2.813" stroke-miterlimit="10"/>
<path d="M114.813 24.5371V111.809" stroke="white" stroke-width="2.813" stroke-miterlimit="10"/>
<path d="M170.768 67.4741C177.988 67.4741 183.842 60.8033 183.842 52.5745C183.842 44.3456 177.988 37.6748 170.768 37.6748C163.548 37.6748 157.694 44.3456 157.694 52.5745C157.694 60.8033 163.548 67.4741 170.768 67.4741Z" fill="#2743FD"/>
<g opacity="0.29">
<path d="M170.768 62.2334C175.449 62.2334 179.243 57.9091 179.243 52.5747C179.243 47.2404 175.449 42.916 170.768 42.916C166.087 42.916 162.293 47.2404 162.293 52.5747C162.293 57.9091 166.087 62.2334 170.768 62.2334Z" fill="white"/>
</g>
<path d="M167.994 56.0242L168.785 54.6269C169.411 55.1742 169.959 55.4532 170.542 55.4532C171.241 55.4532 171.548 55.1221 171.548 54.4837C171.548 53.0389 168.294 53.0642 168.294 50.5289C168.294 48.8993 169.285 47.8611 170.847 47.8611C171.291 47.8538 171.73 47.9566 172.136 48.1624C172.541 48.3682 172.902 48.6722 173.194 49.0531L172.287 50.2366C171.838 49.7722 171.459 49.5278 170.944 49.5278C170.351 49.5278 170.029 49.8002 170.029 50.4307C170.029 51.7705 173.283 51.6537 173.283 54.3392C173.283 55.9522 172.347 57.1192 170.542 57.1192C169.608 57.0956 168.709 56.7093 167.994 56.0242ZM170.162 46.4844H171.365V48.5077H170.162V46.4844ZM170.162 56.2767H171.365V58.4966H170.162V56.2767Z" fill="white"/>
<path d="M156.711 89.384C160.535 88.3552 162.903 83.9886 162 79.6308C161.098 75.273 157.266 72.5743 153.443 73.6031C149.619 74.6318 147.251 78.9985 148.154 83.3563C149.056 87.7141 152.888 90.4128 156.711 89.384Z" fill="#C1D8ED"/>
<path d="M150.365 79.4548C150.365 78.2231 151.073 77.2695 152.244 77.2695C153.406 77.2695 154.124 78.2327 154.124 79.4548C154.124 80.6666 153.416 81.6596 152.244 81.6596C151.073 81.6596 150.365 80.6678 150.365 79.4548ZM152.75 79.4548C152.75 79.0277 152.598 78.6899 152.244 78.6899C151.898 78.6899 151.73 79.0376 151.73 79.4548C151.73 79.8819 151.89 80.2395 152.244 80.2395C152.598 80.2395 152.75 79.8819 152.75 79.4548ZM156.711 77.6515C156.823 77.6397 156.936 77.6626 157.037 77.7176C157.139 77.7726 157.225 77.8578 157.288 77.9641C157.351 78.0705 157.387 78.1941 157.393 78.322C157.399 78.4499 157.375 78.5773 157.323 78.6908L153.995 85.1021C153.931 85.2195 153.84 85.3158 153.733 85.3817C153.626 85.4475 153.506 85.4807 153.384 85.478C153.272 85.4898 153.159 85.467 153.058 85.412C152.956 85.357 152.87 85.2719 152.807 85.1655C152.745 85.0592 152.708 84.9356 152.702 84.8077C152.696 84.6799 152.72 84.5525 152.772 84.439L156.1 78.0277C156.165 77.9104 156.255 77.8141 156.362 77.7482C156.469 77.6823 156.589 77.649 156.711 77.6515H156.711ZM156.021 83.5273C156.021 82.2956 156.738 81.3321 157.909 81.3321C159.071 81.3321 159.789 82.2953 159.789 83.5273C159.789 84.7391 159.072 85.7224 157.909 85.7224C156.729 85.7215 156.021 84.7382 156.021 83.5273ZM158.415 83.5273C158.415 83.1001 158.255 82.7525 157.909 82.7525C157.555 82.7525 157.395 83.1001 157.395 83.5273C157.395 83.9444 157.555 84.302 157.909 84.302C158.263 84.302 158.415 83.9435 158.415 83.5273Z" fill="white"/>
<path d="M195.163 147.902L193.63 148.361L204.38 194.937L205.912 194.477L195.163 147.902Z" fill="#C1D8ED"/>
<path d="M176.143 147.993L169.731 194.572L171.297 194.852L177.709 148.273L176.143 147.993Z" fill="#C1D8ED"/>
<path d="M196.601 103.453C196.601 103.453 209.692 102.51 209.692 115.545C209.692 128.579 207.764 146.796 198.117 148.837C188.47 150.879 174.22 150.264 170.912 149.625C166.847 148.839 165.075 138.093 170.489 137.374C185.854 135.334 178.412 104.867 196.601 103.453Z" fill="#C1D8ED"/>
<path d="M149.09 120.489C149.158 120.487 165.584 120.526 165.617 120.526C167.921 120.526 168.813 122.047 168.813 122.047V122.868H146.354V122.048C147.368 121.264 148.291 120.465 149.09 120.489Z" fill="#DEE8F5"/>
<path d="M152.22 122.251C152.22 122.251 151.035 120.312 149.091 120.49C148.564 120.512 148.046 120.663 147.574 120.932C147.102 121.201 146.686 121.581 146.354 122.049V122.869H158.579V122.049C158.579 122.049 157.689 120.527 155.384 120.527C153.08 120.527 152.22 122.251 152.22 122.251Z" fill="#C1D8ED"/>
<path d="M158.579 122.869H168.812V122.049H158.579V122.869Z" fill="#C1D8ED"/>
<path d="M171.577 185.692L166.047 186.178L166.545 193.54L172.075 193.054L171.577 185.692Z" fill="#E98862"/>
<path d="M159.518 194.652C159.23 194.65 158.955 194.518 158.752 194.286C158.55 194.053 158.437 193.738 158.438 193.41C158.438 193.38 158.438 193.35 158.441 193.32C158.457 193.085 158.532 192.86 158.656 192.672C158.781 192.484 158.95 192.34 159.143 192.257L165.599 189.793C165.724 189.746 165.857 189.73 165.988 189.747C166.119 189.763 166.245 189.812 166.358 189.889C167.245 190.591 168.307 190.95 169.386 190.913C170.227 190.845 171.035 190.509 171.716 189.943C171.776 189.887 171.848 189.851 171.925 189.84C172.002 189.83 172.08 189.844 172.15 189.882C172.22 189.92 172.279 189.98 172.321 190.054C172.362 190.129 172.384 190.216 172.384 190.304V193.902C172.384 194.116 172.309 194.321 172.176 194.472C172.044 194.623 171.864 194.708 171.676 194.708H171.673L159.518 194.652Z" fill="#C1D8ED"/>
<path d="M144.075 185.409L142.988 192.771L148.458 193.82L149.544 186.458L144.075 185.409Z" fill="#E98862"/>
<path d="M141.25 187.024L153.427 133.631C153.699 132.438 154.311 131.382 155.167 130.628C156.022 129.873 157.073 129.464 158.155 129.464H184.843V129.483H199.794V134.705C199.794 136.211 199.534 137.701 199.028 139.092C198.523 140.483 197.782 141.747 196.848 142.812C195.914 143.876 194.805 144.721 193.584 145.297C192.364 145.873 191.056 146.169 189.735 146.17H182.443V146.202H169.713L173.218 188.677L163.489 189.718L160.099 148.647L150.708 189.824L141.25 187.024Z" fill="#262626"/>
<path d="M136.724 194.652C136.436 194.651 136.161 194.519 135.959 194.286C135.756 194.053 135.643 193.738 135.644 193.41C135.644 193.38 135.644 193.35 135.648 193.32C135.664 193.085 135.739 192.86 135.863 192.672C135.987 192.484 136.156 192.34 136.35 192.257L142.805 189.793C142.93 189.746 143.063 189.73 143.194 189.747C143.325 189.763 143.451 189.812 143.564 189.889C144.452 190.591 145.513 190.95 146.593 190.913C147.434 190.845 148.241 190.509 148.922 189.943C148.982 189.887 149.055 189.852 149.132 189.841C149.209 189.83 149.287 189.845 149.357 189.882C149.426 189.92 149.486 189.98 149.527 190.055C149.568 190.129 149.59 190.216 149.59 190.304V193.903C149.59 194.116 149.515 194.321 149.383 194.473C149.25 194.624 149.07 194.709 148.883 194.709H148.879L136.724 194.652Z" fill="#C1D8ED"/>
<path d="M161.582 103.965C161.582 103.965 161.543 100.349 159.275 100.537C157.845 100.656 151.048 100.297 150.947 101.002C150.697 102.748 156.914 103.175 157.478 104.801L161.582 103.965Z" fill="#E98862"/>
<path d="M160.079 100.654C160.079 100.654 156.924 99.4797 156.148 99.6904C155.461 99.8764 156.893 101.15 156.893 101.15L160.079 100.654Z" fill="#E98862"/>
<path d="M168.102 122.876H177.696C177.13 126.348 176.411 127.808 177.153 129.75C178.259 132.648 200.004 133.852 200.294 128.753C200.479 125.509 197.97 122.673 197.97 116.352C197.97 110.031 203.075 101.953 198.916 97.2118C197.711 95.8393 195.625 94.9483 193.084 94.9453C192.894 96.6339 183.896 96.6399 183.827 94.9844C183.484 94.9905 183.217 94.9995 183.05 95.0055C179.95 95.1578 178.43 96.6809 177.763 98.9543L170.711 113.339L161.695 101.779L156.842 104.889L168.102 119.828L168.102 122.876ZM178.225 115.148C178.229 115.551 178.228 115.936 178.225 116.312H175.852L178.044 111.84C178.143 112.972 178.215 114.085 178.226 115.148H178.225Z" fill="#FF6E00"/>
<path d="M183.827 94.9844C183.895 96.6399 184.688 99.075 187.123 99.2556C190.374 99.5024 192.894 96.6339 193.084 94.9453H193.073C189.877 94.9453 185.694 94.9513 183.827 94.9844Z" fill="#E98862"/>
<path d="M164.202 121.299C164.717 121.76 166.947 121.904 168.103 121.949V117.064C167.514 116.703 166.78 116.236 166.233 115.839C165.475 115.285 165.132 115.125 164.942 115.186H164.939C164.894 115.201 164.854 115.23 164.823 115.27C164.797 115.302 164.777 115.34 164.765 115.381C164.641 115.763 165.208 116.338 165.523 116.622L165.525 116.625C165.639 116.727 165.721 116.793 165.721 116.793L165.05 117.145L165.047 117.148L164.461 117.458L164.453 117.461L164.136 117.627C164.136 117.627 164.081 117.892 164.02 118.28V118.283C163.877 119.213 163.706 120.857 164.202 121.299Z" fill="#E98862"/>
<path d="M160.397 121.305L161.76 120.776L165.775 116.345L166.32 115.742L167.294 114.669L166.382 113.598L165.399 114.682L164.853 115.284L160.85 119.702L160.397 121.305Z" fill="#2743FD"/>
<path d="M164.853 115.284L165.775 116.346L166.32 115.742L165.399 114.683L164.853 115.284Z" fill="white"/>
<path d="M165.316 116.696C164.97 116.704 164.625 116.736 164.284 116.794C163.932 116.846 163.584 116.935 163.247 117.06C163.059 117.128 162.877 117.216 162.704 117.323C162.607 117.384 162.514 117.453 162.427 117.531L162.233 117.722C161.977 117.985 161.744 118.274 161.536 118.587C161.48 118.673 161.452 118.779 161.457 118.886C161.462 118.993 161.501 119.095 161.566 119.173C161.63 119.251 161.717 119.301 161.811 119.313C161.905 119.325 161.999 119.299 162.078 119.239L162.097 119.225L162.862 118.64L163.054 118.497C163.098 118.468 163.144 118.442 163.192 118.42C163.309 118.365 163.431 118.323 163.555 118.293C163.841 118.225 164.131 118.178 164.422 118.152C164.72 118.125 165.037 118.105 165.325 118.099H165.338C165.419 118.098 165.499 118.078 165.573 118.041C165.647 118.004 165.714 117.951 165.77 117.885C165.826 117.819 165.87 117.741 165.9 117.655C165.93 117.569 165.944 117.478 165.943 117.386C165.941 117.293 165.924 117.203 165.892 117.118C165.86 117.034 165.813 116.957 165.755 116.893C165.697 116.829 165.628 116.779 165.553 116.745C165.478 116.712 165.397 116.695 165.317 116.697L165.316 116.696Z" fill="#E98862"/>
<path d="M140.739 125.793H138.258V194.708H140.739V125.793Z" fill="#C1D8ED"/>
<path d="M193.541 125.97H191.061V194.885H193.541V125.97Z" fill="#C1D8ED"/>
<path d="M214.925 125.793H212.445V194.708H214.925V125.793Z" fill="#C1D8ED"/>
<g opacity="0.05">
<path d="M140.739 125.793H138.258V194.708H140.739V125.793Z" fill="black"/>
</g>
<g opacity="0.05">
<path d="M214.925 125.793H212.445V194.708H214.925V125.793Z" fill="black"/>
</g>
<path d="M119.61 125.793H117.129V194.708H119.61V125.793Z" fill="#C1D8ED"/>
<path d="M218.354 122.946H113.7V126.833H218.354V122.946Z" fill="#C1D8ED"/>
<path d="M139.704 105.55L142.91 120.892C142.96 121.131 142.962 121.38 142.915 121.619C142.869 121.859 142.775 122.083 142.642 122.276C142.508 122.468 142.338 122.624 142.145 122.731C141.951 122.838 141.738 122.894 141.523 122.894H122.618C122.306 122.894 122.002 122.777 121.754 122.561C121.505 122.345 121.326 122.042 121.243 121.699L117.548 106.357C117.49 106.116 117.481 105.863 117.523 105.617C117.565 105.372 117.656 105.141 117.789 104.942C117.922 104.743 118.094 104.582 118.29 104.471C118.487 104.36 118.703 104.302 118.923 104.302H138.317C138.638 104.302 138.949 104.425 139.201 104.651C139.452 104.878 139.63 105.195 139.704 105.55Z" fill="#9EBCEA"/>
<path d="M149.641 122.894H126.791C126.569 122.894 126.356 122.793 126.198 122.614C126.041 122.435 125.953 122.192 125.953 121.939C125.953 121.686 126.041 121.443 126.198 121.264C126.356 121.085 126.569 120.984 126.791 120.984H149.641C149.864 120.984 150.077 121.085 150.234 121.264C150.391 121.443 150.479 121.686 150.479 121.939C150.479 122.192 150.391 122.435 150.234 122.614C150.077 122.793 149.864 122.894 149.641 122.894Z" fill="#9EBCEA"/>
<path d="M129.455 115.995C130.69 115.995 131.691 114.854 131.691 113.447C131.691 112.039 130.69 110.898 129.455 110.898C128.22 110.898 127.219 112.039 127.219 113.447C127.219 114.854 128.22 115.995 129.455 115.995Z" fill="white"/>
<path d="M181.534 78.334C181.534 78.334 179.532 86.5088 178.408 90.7507C178.355 90.9517 178.343 91.1641 178.375 91.3709C178.407 91.5777 178.48 91.7732 178.59 91.9417C178.7 92.1102 178.843 92.2471 179.008 92.3413C179.173 92.4354 179.354 92.4844 179.539 92.4842H186.564C186.867 92.4841 187.159 92.3509 187.379 92.1122C187.598 91.8735 187.729 91.5477 187.743 91.2022L188.217 79.8224L181.534 78.334Z" fill="#0F1011"/>
<path d="M192.301 96.5183C192.301 96.5183 190.258 95.2863 190.709 88.9479L186.488 88.0605C186.488 88.0605 186.967 93.7425 184.833 95.5488L192.301 96.5183Z" fill="#E98862"/>
<g opacity="0.15">
<path d="M185.698 94.3596L189.2 91.2996L186.447 91.2695C186.368 92.3438 186.114 93.3917 185.698 94.3596Z" fill="black"/>
</g>
<path d="M193.101 86.4879C192.811 88.411 191.891 90.2329 190.403 90.8554C188.782 91.591 187.026 91.8631 185.291 91.6479C180.672 91.2211 181.576 79.2501 183.767 76.9228C185.959 74.5955 192.396 76.0614 193.182 79.9494C193.588 81.9612 193.378 84.6588 193.101 86.4879Z" fill="#E98862"/>
<path d="M186.492 85.0139C186.703 85.0139 186.874 84.8186 186.874 84.5777C186.874 84.3369 186.703 84.1416 186.492 84.1416C186.28 84.1416 186.109 84.3369 186.109 84.5777C186.109 84.8186 186.28 85.0139 186.492 85.0139Z" fill="#0F1011"/>
<path d="M183.472 84.7346C183.684 84.7346 183.855 84.5393 183.855 84.2985C183.855 84.0576 183.684 83.8623 183.472 83.8623C183.261 83.8623 183.09 84.0576 183.09 84.2985C183.09 84.5393 183.261 84.7346 183.472 84.7346Z" fill="#0F1011"/>
<path d="M182.809 83.37H182.811L183.825 83.3543C183.872 83.3536 183.918 83.3313 183.951 83.2924C183.985 83.2534 184.003 83.201 184.002 83.1466C184.002 83.0923 183.982 83.0404 183.948 83.0025C183.914 82.9645 183.868 82.9436 183.82 82.9444L182.806 82.96C182.782 82.9602 182.759 82.9657 182.737 82.9761C182.716 82.9866 182.696 83.0018 182.679 83.021C182.663 83.0402 182.65 83.0629 182.641 83.0878C182.632 83.1127 182.627 83.1394 182.627 83.1663C182.628 83.1933 182.632 83.2199 182.642 83.2447C182.651 83.2695 182.664 83.292 182.681 83.3109C182.698 83.3298 182.718 83.3447 182.74 83.3549C182.761 83.365 182.785 83.3701 182.809 83.37Z" fill="#0F1011"/>
<path d="M187.317 83.7866C187.361 83.7865 187.403 83.7681 187.436 83.7348C187.469 83.7014 187.49 83.6555 187.495 83.6057C187.5 83.5559 187.489 83.5057 187.464 83.4645C187.439 83.4233 187.402 83.3941 187.359 83.3823L186.359 83.1093C186.336 83.1024 186.312 83.1007 186.288 83.1045C186.264 83.1084 186.242 83.1175 186.221 83.1315C186.2 83.1455 186.183 83.1641 186.168 83.1861C186.154 83.2081 186.144 83.2331 186.138 83.2596C186.133 83.2862 186.132 83.3138 186.136 83.3407C186.14 83.3677 186.148 83.3934 186.161 83.4166C186.174 83.4397 186.19 83.4597 186.21 83.4754C186.23 83.491 186.252 83.5021 186.275 83.5079L187.275 83.7809C187.288 83.7847 187.303 83.7866 187.317 83.7866Z" fill="#0F1011"/>
<path d="M186.317 88.0119C186.317 88.0119 184.905 88.1831 183.914 87.79C183.914 87.79 183.923 88.8501 185.041 88.9537C186.159 89.0572 186.317 88.0119 186.317 88.0119Z" fill="white"/>
<g opacity="0.15">
<path d="M184.795 86.9986C184.826 86.9986 184.857 86.9857 184.881 86.9622C184.905 86.9386 184.921 86.9061 184.925 86.8704C184.93 86.8348 184.923 86.7984 184.906 86.7679C184.89 86.7374 184.864 86.7148 184.833 86.7042L184.055 86.4333L184.598 85.0508C184.611 85.0147 184.611 84.9745 184.598 84.9386C184.585 84.9026 184.561 84.8737 184.53 84.8578C184.498 84.842 184.463 84.8404 184.431 84.8535C184.399 84.8666 184.373 84.8933 184.357 84.928L183.692 86.6214L184.756 86.9929C184.769 86.9969 184.782 86.9988 184.795 86.9986Z" fill="black"/>
</g>
<path d="M181.294 79.3126C181.294 79.3126 181.97 73.078 190.736 74.6092C192.921 74.9909 196.018 76.9353 196.52 83.308C196.749 86.2313 197.633 88.9875 198.308 90.7321C198.387 90.9369 198.421 91.1612 198.406 91.3847C198.39 91.6081 198.326 91.8235 198.219 92.0115C198.112 92.1994 197.965 92.3539 197.792 92.4609C197.619 92.5679 197.426 92.624 197.229 92.6242L191.067 92.6266C190.913 92.627 190.759 92.5925 190.616 92.5253C190.473 92.4581 190.343 92.3594 190.233 92.2348C190.123 92.1103 190.036 91.9623 189.977 91.7994C189.917 91.6365 189.887 91.4618 189.886 91.2854C189.886 91.2655 189.886 91.2459 189.886 91.2252C189.931 90.0299 189.966 88.0063 189.906 84.9133C189.586 83.1479 190.439 81.9033 189.2 82.309C184.601 83.8143 181.639 79.4146 181.294 79.3126Z" fill="#0F1011"/>
<path d="M188.426 86.4554C188.408 86.6974 188.433 86.941 188.499 87.1721C188.564 87.4032 188.669 87.6174 188.807 87.8024C189.085 88.176 189.483 88.4082 189.912 88.4479C190.341 88.4875 190.766 88.3313 191.094 88.0137C191.421 87.6961 191.625 87.2431 191.66 86.7543C191.701 86.2745 191.573 85.7956 191.305 85.4231C191.036 85.0506 190.649 84.8148 190.228 84.7677C190.21 84.7656 190.192 84.7638 190.175 84.7626C189.017 84.7193 188.498 85.4374 188.426 86.4554Z" fill="#E98862"/>
<path d="M38.2677 191.744L32.7603 190.997C33.0083 188.621 33.2885 185.768 33.3075 185.3C33.3075 185.33 33.3075 185.354 33.3075 185.374H38.8538C38.8525 185.565 38.8525 186.14 38.2677 191.744Z" fill="#E98862"/>
<path d="M16.1684 192.499L10.6221 192.479C10.6221 192.479 10.6406 185.952 10.6406 185.375H16.1869C16.1869 185.953 16.1684 192.499 16.1684 192.499Z" fill="#E98862"/>
<path d="M30.5433 189.748L40.314 189.558C39.9078 177.831 39.8386 164.417 39.7293 152.278C38.7656 136.365 36.6772 120.614 34.4186 104.856L34.3481 104.88L34.1415 103.275L14.0491 101.862C12.6757 119.079 11.2231 153.965 9.19238 189.389L18.9298 190.327C20.6843 169.923 23.4002 140.193 25.0693 118.759C29.8637 142.12 30.9582 165.902 30.5433 189.748Z" fill="#262626"/>
<path d="M22.9105 194.944C24.0855 194.974 24.3948 192.982 23.2847 192.549C22.8323 192.519 16.3336 189.513 16.0709 190.181C12.5373 193.003 10.2604 188.97 10.0449 190.596V194.194C10.0449 194.3 10.0633 194.405 10.099 194.503C10.1348 194.601 10.1871 194.69 10.2531 194.765C10.3191 194.84 10.3974 194.899 10.4836 194.939C10.5697 194.98 10.662 195 10.7551 195L22.9105 194.944Z" fill="#C1D8ED"/>
<path d="M45.0252 194.944C46.2003 194.974 46.5098 192.982 45.3997 192.549C44.9471 192.519 38.4486 189.513 38.1856 190.181C34.6523 193.003 32.3765 188.97 32.1599 190.596V194.194C32.1599 194.3 32.1783 194.405 32.214 194.503C32.2498 194.601 32.3021 194.69 32.3681 194.765C32.4341 194.84 32.5124 194.899 32.5985 194.939C32.6847 194.98 32.777 195 32.8701 195L45.0252 194.944Z" fill="#C1D8ED"/>
<path d="M40.0212 93.2336C41.738 92.9627 46.4304 93.0078 41.8365 94.558L40.0212 93.2336Z" fill="#E98862"/>
<path d="M39.5948 96.9466C39.5948 96.9466 45.0793 99.5144 48.2312 96.5854C48.3099 96.5099 48.3671 96.4093 48.3954 96.2966C48.4238 96.1839 48.422 96.0641 48.3904 95.9525C48.3587 95.841 48.2986 95.7427 48.2177 95.6702C48.1368 95.5978 48.0388 95.5544 47.9362 95.5457C45.812 95.4022 41.4486 94.9136 41.9581 93.3184H38.5312" fill="#E98862"/>
<path d="M44.086 89.8495C44.5976 89.8488 45.0994 89.6903 45.5383 89.3908C45.9771 89.0913 46.3367 88.6619 46.5787 88.1483L54.1185 72.1033L49.1329 69.0605L43.3457 81.377L33.9006 71.1389L30.4783 76.3254C31.6594 77.1378 42.6125 90.6974 44.086 89.8495Z" fill="#FF6E00"/>
<path d="M35.8612 104.974C34.7329 107.93 13.0899 109.158 12.7936 103.959C12.605 100.65 13.8429 97.762 13.8429 91.3137C13.087 82.474 7.21689 69.9186 19.6171 69.4863C19.811 71.2083 28.9835 71.2144 29.0532 69.5264C38.7725 69.1718 34.9846 81.2192 34.7678 90.0893C34.6629 100.051 37.0246 101.93 35.8612 104.974Z" fill="#FF6E00"/>
<path d="M29.0521 69.5264C28.8603 76.6055 20.2065 73.7804 19.616 69.4863C22.8785 69.4863 27.1505 69.4926 29.0521 69.5264Z" fill="#E98862"/>
<path d="M23.7796 99.6299C23.8441 99.632 40.7143 99.0415 40.7917 99.0403L40.6124 92.3515L25.6038 92.8728L17.6853 73.9883L12.3867 76.8745L21.1306 97.7276C21.3696 98.2973 21.7452 98.7782 22.214 99.1149C22.6828 99.4515 23.2256 99.6301 23.7796 99.6299Z" fill="#FF6E00"/>
<path d="M55.1793 68.6707L53.246 71.5723L49.4111 69.2293C50.0978 68.0374 51.767 66.4902 51.767 66.4902L55.1793 68.6707Z" fill="#E98862"/>
<path d="M66.1285 59.4695L54.9715 57.3716C54.514 57.2856 54.0819 57.6385 54.0064 58.1599L51.5954 74.8135C51.5199 75.3349 51.8296 75.8273 52.2871 75.9134L63.4441 78.0113C63.9017 78.0973 64.3337 77.7444 64.4092 77.223L66.8202 60.5694C66.8957 60.048 66.586 59.5556 66.1285 59.4695Z" fill="#262626"/>
<path d="M65.2512 60.9577L55.382 59.102C55.2202 59.0715 55.0675 59.1963 55.0408 59.3807L54.7651 61.2846C54.7385 61.469 54.848 61.6431 55.0097 61.6735L64.8789 63.5293C65.0407 63.5597 65.1935 63.4349 65.2201 63.2506L65.4958 61.3466C65.5225 61.1623 65.413 60.9881 65.2512 60.9577Z" fill="white"/>
<path d="M57.1488 63.1286L55.2392 62.7695C54.9725 62.7194 54.7207 62.9251 54.6767 63.229L54.4833 64.5645C54.4393 64.8685 54.6198 65.1555 54.8865 65.2057L56.7961 65.5647C57.0628 65.6149 57.3146 65.4091 57.3586 65.1052L57.552 63.7697C57.596 63.4658 57.4155 63.1787 57.1488 63.1286Z" fill="#FD5D76"/>
<path opacity="0.29" d="M60.7511 63.8063L58.8415 63.4472C58.5748 63.3971 58.323 63.6028 58.279 63.9068L58.0856 65.2423C58.0416 65.5462 58.2221 65.8332 58.4888 65.8834L60.3984 66.2425C60.6651 66.2926 60.9169 66.0869 60.9609 65.7829L61.1543 64.4474C61.1983 64.1435 61.0178 63.8565 60.7511 63.8063Z" fill="white"/>
<path opacity="0.29" d="M64.3531 64.4831L62.4436 64.124C62.1769 64.0739 61.925 64.2796 61.881 64.5835L61.6877 65.919C61.6437 66.223 61.8242 66.51 62.0909 66.5601L64.0005 66.9192C64.2671 66.9694 64.519 66.7636 64.563 66.4597L64.7563 65.1242C64.8003 64.8203 64.6198 64.5332 64.3531 64.4831Z" fill="white"/>
<path opacity="0.29" d="M56.6932 66.2751L54.7836 65.916C54.517 65.8658 54.2651 66.0716 54.2211 66.3755L54.0278 67.711C53.9838 68.015 54.1643 68.302 54.431 68.3521L56.3405 68.7112C56.6072 68.7614 56.8591 68.5556 56.9031 68.2517L57.0964 66.9162C57.1404 66.6122 56.9599 66.3252 56.6932 66.2751Z" fill="white"/>
<path opacity="0.29" d="M60.2955 66.9528L58.3859 66.5937C58.1193 66.5436 57.8674 66.7493 57.8234 67.0532L57.6301 68.3888C57.5861 68.6927 57.7666 68.9797 58.0333 69.0299L59.9428 69.3889C60.2095 69.4391 60.4614 69.2334 60.5054 68.9294L60.6987 67.5939C60.7427 67.29 60.5622 67.0029 60.2955 66.9528Z" fill="white"/>
<path opacity="0.29" d="M63.9069 67.6682L61.9967 67.3087C61.7299 67.2585 61.478 67.4642 61.4339 67.7683L61.2403 69.1043C61.1962 69.4083 61.3768 69.6955 61.6436 69.7457L63.5538 70.1052C63.8206 70.1554 64.0726 69.9496 64.1166 69.6456L64.3102 68.3096C64.3543 68.0056 64.1737 67.7184 63.9069 67.6682Z" fill="white"/>
<path opacity="0.29" d="M56.2374 69.4225L54.3278 69.0635C54.0612 69.0133 53.8093 69.219 53.7653 69.523L53.572 70.8585C53.528 71.1624 53.7085 71.4495 53.9751 71.4996L55.8847 71.8587C56.1514 71.9088 56.4033 71.7031 56.4473 71.3992L56.6406 70.0636C56.6846 69.7597 56.5041 69.4727 56.2374 69.4225Z" fill="white"/>
<path opacity="0.29" d="M59.84 70.0993L57.9304 69.7402C57.6637 69.6901 57.4118 69.8958 57.3678 70.1997L57.1745 71.5353C57.1305 71.8392 57.311 72.1262 57.5777 72.1764L59.4873 72.5354C59.7539 72.5856 60.0058 72.3798 60.0498 72.0759L60.2432 70.7404C60.2872 70.4365 60.1066 70.1494 59.84 70.0993Z" fill="white"/>
<path opacity="0.29" d="M55.7819 72.569L53.8723 72.2099C53.6056 72.1598 53.3537 72.3655 53.3097 72.6694L53.1164 74.005C53.0724 74.3089 53.2529 74.5959 53.5196 74.6461L55.4292 75.0052C55.6958 75.0553 55.9477 74.8496 55.9917 74.5456L56.185 73.2101C56.229 72.9062 56.0485 72.6192 55.7819 72.569Z" fill="white"/>
<path opacity="0.29" d="M59.3844 73.2467L57.4748 72.8877C57.2081 72.8375 56.9563 73.0433 56.9123 73.3472L56.7189 74.6827C56.6749 74.9866 56.8554 75.2737 57.1221 75.3238L59.0317 75.6829C59.2984 75.733 59.5502 75.5273 59.5942 75.2234L59.7876 73.8878C59.8316 73.5839 59.6511 73.2969 59.3844 73.2467Z" fill="white"/>
<path d="M61.5322 70.4186C61.4688 70.4066 61.4039 70.4091 61.3413 70.4257C61.2787 70.4424 61.2196 70.4729 61.1674 70.5156C61.1152 70.5583 61.0708 70.6123 61.0369 70.6745C61.003 70.7367 60.9801 70.8059 60.9697 70.8782L60.6208 73.2862L60.5415 73.828L60.3202 75.3555C60.2992 75.5015 60.3298 75.6511 60.4054 75.7713C60.481 75.8916 60.5954 75.9728 60.7235 75.997L62.633 76.3557C62.6964 76.3677 62.7613 76.3653 62.8239 76.3487C62.8865 76.3321 62.9456 76.3016 62.9978 76.2589C63.0501 76.2163 63.0944 76.1623 63.1284 76.1001C63.1623 76.0379 63.1851 75.9687 63.1956 75.8964L63.4166 74.3686L63.4959 73.8268L63.8445 71.4188C63.8656 71.2729 63.8351 71.1233 63.7595 71.0031C63.6839 70.8829 63.5695 70.8018 63.4415 70.7777L61.5322 70.4186Z" fill="#0CBC8B"/>
<path d="M51.0835 69.17C51.0835 69.17 49.9478 68.5217 50.6762 67.647C51.6394 66.4914 52.9161 65.2474 53.6551 65.695C54.1205 65.977 52.8015 67.5946 51.8063 68.7294" fill="#E98862"/>
<path d="M22.235 65.4328C22.2376 65.3486 22.2376 65.2676 22.2376 65.18C22.2403 64.6325 22.2194 64.0362 22.1716 63.3864L22.7262 63.2687L26.3918 62.4951C26.3187 63.5639 26.333 64.638 26.4343 65.7037C26.4473 65.8241 26.4607 65.9479 26.4763 66.0713C26.4869 66.1673 26.5004 66.2666 26.5159 66.3632C26.5315 66.4598 26.5423 66.5526 26.5608 66.6459C26.5925 66.8445 26.6295 67.0435 26.6744 67.2388C26.6826 67.2857 26.6932 67.3321 26.7061 67.3776C26.7068 67.3858 26.7085 67.3938 26.7114 67.4014C26.7325 67.501 26.7589 67.6033 26.788 67.6994C26.817 67.8107 26.8487 67.9191 26.886 68.0277C26.8965 68.0606 26.9071 68.097 26.92 68.1301C26.9544 68.2384 26.994 68.3435 27.0362 68.4458C27.0811 68.5632 27.1313 68.6776 27.1841 68.789C27.1848 68.789 27.1855 68.7893 27.186 68.7898C27.1865 68.7904 27.1868 68.7912 27.1868 68.792C27.3859 69.2365 27.666 69.6275 28.0084 69.9388H21.3713C21.7807 69.1321 22.2033 67.7445 22.235 65.4328Z" fill="#E98862"/>
<path opacity="0.15" d="M27.1879 68.7942L23.6826 65.7376L26.4357 65.7051C26.5155 66.7792 26.7706 67.8268 27.1879 68.7942Z" fill="black"/>
<path d="M19.7781 60.9291C20.0702 62.8518 20.9911 64.6729 22.4794 65.2935C24.246 66.031 25.5547 66.0809 27.5918 66.0809C30.3718 66.0809 30.2799 62.7769 30.3578 59.4476C30.437 56.1047 30.203 52.5189 29.1043 51.3541C26.9122 49.0292 20.4751 50.5016 19.6922 54.3905C19.2874 56.4021 19.5002 59.0987 19.7781 60.9291Z" fill="#E98862"/>
<path d="M32.0754 51.3177C31.6103 49.3745 30.1611 48.4248 27.7643 49.1388C26.0598 49.6466 25.844 49.19 24.4006 48.398C23.574 47.9444 20.8616 48.1518 20.1905 50.2437C19.471 52.485 17.2451 50.67 17.0383 54.3211C16.8656 57.3771 17.3848 61.346 20.3637 64.0171C20.8389 64.5613 21.3788 65.0268 21.9677 65.3999C22.2204 65.5711 22.2817 65.4318 22.3694 65.1121C22.6794 63.9816 23.3064 60.0289 23.0503 56.8124C23.0083 56.2833 23.0949 55.4609 24.2855 55.4037C25.586 55.3414 28.9658 55.6746 30.1619 54.6976C30.1614 54.6976 32.5405 53.2612 32.0754 51.3177Z" fill="#0F1011"/>
<path d="M26.3859 59.4485C26.5972 59.4485 26.7686 59.2532 26.7686 59.0123C26.7686 58.7714 26.5972 58.5762 26.3859 58.5762C26.1745 58.5762 26.0032 58.7714 26.0032 59.0123C26.0032 59.2532 26.1745 59.4485 26.3859 59.4485Z" fill="#0F1011"/>
<path d="M29.4049 59.1662C29.6163 59.1662 29.7876 58.971 29.7876 58.7301C29.7876 58.4892 29.6163 58.2939 29.4049 58.2939C29.1936 58.2939 29.0222 58.4892 29.0222 58.7301C29.0222 58.971 29.1936 59.1662 29.4049 59.1662Z" fill="#0F1011"/>
<path d="M30.068 57.8011H30.0659L29.052 57.7866C29.0055 57.7843 28.9617 57.7615 28.9296 57.723C28.8976 57.6846 28.8798 57.6335 28.8801 57.5805C28.8804 57.5275 28.8988 57.4766 28.9313 57.4387C28.9638 57.4007 29.0079 57.3786 29.0544 57.377H29.0565L30.0704 57.3911C30.1181 57.3915 30.1637 57.4134 30.1972 57.4521C30.2308 57.4908 30.2494 57.5431 30.2491 57.5974C30.2488 57.6518 30.2295 57.7038 30.1956 57.742C30.1616 57.7802 30.1157 57.8014 30.068 57.8011Z" fill="#0F1011"/>
<path d="M25.5598 58.2222C25.5158 58.2221 25.4734 58.2036 25.4405 58.1702C25.4077 58.1369 25.3867 58.091 25.3816 58.0412C25.3765 57.9914 25.3875 57.9412 25.4127 57.9C25.4378 57.8589 25.4753 57.8297 25.518 57.818L26.5174 57.5437C26.5638 57.5311 26.6128 57.5399 26.6535 57.5683C26.6941 57.5967 26.7233 57.6424 26.7344 57.6953C26.7455 57.7482 26.7378 57.804 26.7128 57.8503C26.6879 57.8967 26.6478 57.9299 26.6014 57.9426L25.602 58.2168C25.5882 58.2204 25.574 58.2222 25.5598 58.2222Z" fill="#0F1011"/>
<path d="M24.3951 60.0783C24.4156 60.3222 24.3934 60.5683 24.3298 60.8023C24.2661 61.0364 24.1623 61.2537 24.0243 61.4416C23.8863 61.6295 23.7169 61.7842 23.526 61.8969C23.3351 62.0095 23.1264 62.0778 22.9122 62.0978C22.6979 62.1177 22.4823 62.0889 22.2778 62.0131C22.0734 61.9372 21.8842 61.8158 21.7213 61.6559C21.5584 61.496 21.425 61.3008 21.3289 61.0817C21.2328 60.8625 21.1758 60.6238 21.1613 60.3793C21.1402 60.1365 21.1622 59.8914 21.226 59.6585C21.2897 59.4255 21.3939 59.2096 21.5324 59.0236C21.6709 58.8376 21.8409 58.6852 22.0321 58.5756C22.2234 58.4659 22.432 58.4013 22.6456 58.3855C23.8019 58.3442 24.3219 59.0612 24.3951 60.0783Z" fill="#E98862"/>
<g opacity="0.15">
<path d="M28.0848 61.4308C28.0531 61.4308 28.0225 61.4179 27.9986 61.3944C27.9746 61.3709 27.9588 61.3384 27.9541 61.3027C27.9494 61.267 27.9561 61.2307 27.9729 61.2001C27.9898 61.1696 28.0157 61.147 28.046 61.1365L28.8243 60.864L28.28 59.4825C28.2726 59.4644 28.2684 59.4449 28.2678 59.4249C28.2671 59.405 28.2699 59.3852 28.276 59.3665C28.2821 59.3478 28.2914 59.3307 28.3033 59.3162C28.3153 59.3017 28.3296 59.29 28.3456 59.2818C28.3615 59.2736 28.3787 59.2691 28.3962 59.2686C28.4137 59.2681 28.4311 59.2715 28.4474 59.2787C28.4637 59.2859 28.4786 59.2967 28.4912 59.3105C28.5038 59.3243 28.5139 59.3408 28.5208 59.3591L29.1264 60.896C29.1341 60.9154 29.1381 60.9366 29.1381 60.9579C29.1382 60.9793 29.1342 61.0004 29.1264 61.0199C29.1187 61.0394 29.1074 61.0568 29.0934 61.0709C29.0793 61.085 29.0627 61.0956 29.0448 61.1018L28.1236 61.4242C28.111 61.4286 28.0979 61.4308 28.0848 61.4308Z" fill="black"/>
</g>
<path d="M26.563 62.4469C26.563 62.4469 27.9757 62.617 28.9664 62.2227C28.9664 62.2227 28.9585 63.2828 27.8408 63.3872C26.723 63.4917 26.563 62.4469 26.563 62.4469Z" fill="#F8FCFF"/>
</g>
<defs>
<clipPath id="clip0_359_3826">
<rect width="221" height="195" fill="white"/>
</clipPath>
</defs>
</svg>
