<svg width="229" height="203" viewBox="0 0 229 203" fill="none" xmlns="http://www.w3.org/2000/svg">
<g filter="url(#filter0_d_359_3642)">
<g clip-path="url(#clip0_359_3642)">
<path d="M4 195H225C222.578 188.53 218.107 183.04 211.802 181.411C202.58 179.032 192.821 185.573 183.62 183.114C178.392 181.718 174.277 177.65 169.952 174.27C153.637 161.525 131.279 157.757 111.973 164.503C101.882 168.028 92.6864 174.192 82.349 176.813C68.9816 180.203 55.0024 177.391 41.2554 176.929C27.8673 176.479 8.68465 182.195 4 195Z" fill="#F3F5FD"/>
<path d="M113.449 108.995C142.172 108.995 165.456 84.5956 165.456 54.4975C165.456 24.3994 142.172 0 113.449 0C84.7256 0 61.4409 24.3994 61.4409 54.4975C61.4409 84.5956 84.7256 108.995 113.449 108.995Z" fill="#DEE8F5"/>
<path d="M166.329 191.873C165.719 186.492 165.719 185.938 165.719 185.756H171.511C171.511 185.738 171.511 185.714 171.511 185.686C171.531 186.135 171.823 188.875 172.082 191.156L166.329 191.873Z" fill="#E98862"/>
<path d="M189.408 192.599C189.408 192.599 189.388 186.313 189.388 185.757H195.18C195.18 186.312 195.2 192.578 195.2 192.578L189.408 192.599Z" fill="#E98862"/>
<path d="M174.396 189.957L164.191 189.775C164.67 177.049 164.7 163.7 164.849 150.944C166.841 137.194 167.89 122.095 170.347 108.444L170.421 108.467L170.637 106.927L191.619 105.568C191.619 105.568 192.226 116.343 192.436 119.934C193.458 137.356 195.445 169.629 196.691 189.611L186.522 190.512C184.69 170.92 181.855 142.374 180.111 121.793C178.108 131.813 176.746 142.189 175.005 152.123C174.658 164.559 174.363 177.559 174.396 189.957Z" fill="#262626"/>
<path d="M182.367 194.946C182.211 194.945 182.057 194.911 181.915 194.845C181.772 194.779 181.644 194.683 181.539 194.563C181.433 194.443 181.352 194.301 181.301 194.147C181.25 193.992 181.23 193.829 181.242 193.666C181.259 193.441 181.337 193.225 181.467 193.044C181.597 192.863 181.774 192.725 181.976 192.646L188.717 190.28C188.848 190.235 188.986 190.22 189.123 190.236C189.26 190.252 189.392 190.298 189.51 190.372C190.436 191.046 191.545 191.391 192.673 191.355C193.551 191.29 194.394 190.967 195.105 190.424C195.168 190.37 195.244 190.336 195.324 190.326C195.404 190.315 195.486 190.329 195.559 190.366C195.632 190.402 195.693 190.459 195.737 190.531C195.78 190.603 195.802 190.686 195.802 190.771V194.225C195.802 194.327 195.783 194.428 195.746 194.522C195.709 194.616 195.654 194.702 195.585 194.773C195.516 194.845 195.434 194.902 195.344 194.941C195.254 194.98 195.158 194.999 195.061 194.999L182.367 194.946Z" fill="#FF6E00"/>
<path d="M159.272 194.946C159.116 194.945 158.962 194.911 158.82 194.845C158.677 194.779 158.549 194.683 158.444 194.563C158.338 194.443 158.258 194.301 158.207 194.147C158.156 193.992 158.136 193.829 158.148 193.666C158.165 193.441 158.243 193.225 158.373 193.044C158.502 192.863 158.679 192.725 158.881 192.646L165.623 190.28C165.753 190.235 165.892 190.22 166.028 190.236C166.165 190.252 166.297 190.298 166.415 190.372C167.342 191.046 168.45 191.391 169.578 191.355C170.456 191.29 171.299 190.967 172.01 190.424C172.073 190.37 172.149 190.336 172.229 190.326C172.31 190.316 172.391 190.329 172.464 190.366C172.537 190.402 172.599 190.459 172.642 190.531C172.685 190.603 172.708 190.686 172.708 190.771V194.225C172.708 194.327 172.689 194.428 172.651 194.522C172.614 194.616 172.559 194.702 172.49 194.773C172.421 194.845 172.34 194.902 172.25 194.941C172.16 194.98 172.063 194.999 171.966 194.999L159.272 194.946Z" fill="#FF6E00"/>
<path d="M184.853 75.8602C184.853 75.8602 182.72 74.6752 183.197 68.5898L178.79 67.7334C178.79 67.7334 179.287 73.1897 177.056 74.9221L184.853 75.8602Z" fill="#E98862"/>
<path d="M185.697 66.2293C185.392 68.0755 184.43 69.824 182.876 70.42C181.031 71.1281 179.664 71.176 177.537 71.176C174.634 71.176 174.73 68.0035 174.649 64.8067C174.566 61.5969 174.81 58.1539 175.958 57.0354C178.247 54.8031 184.969 56.2169 185.787 59.951C186.21 61.8825 185.987 64.4718 185.697 66.2293Z" fill="#E98862"/>
<path d="M173.093 58.8917C173.093 58.8917 171.904 58.6134 172.229 57.3712C172.445 56.5473 173.453 56.7302 173.453 56.7302C173.453 56.7302 172.499 56.5473 172.499 55.6747C172.499 55.1256 172.902 54.1938 174.118 54.7262C175.545 55.3507 177.172 55.2704 178.41 55.0525C179.11 54.8918 179.82 54.7867 180.536 54.738H180.539C181.361 54.723 182.181 54.8378 182.97 55.0788C185.182 55.7724 188.582 57.8594 187.818 62.5622C186.993 67.6448 184.04 69.8783 183.633 70.1876C182.869 70.7697 178.172 70.8876 177.707 70.4C177.01 69.67 176.631 66.7347 176.772 61.6215C174.847 61.3036 173.525 61.166 173.525 61.166C173.525 61.166 171.925 61.229 171.925 60.0036C171.925 58.7782 173.093 58.8917 173.093 58.8917Z" fill="#0F1011"/>
<path d="M175.368 65.4135C175.338 65.8789 175.484 66.3381 175.775 66.6915C176.065 67.045 176.477 67.2645 176.92 67.3025C177.364 67.3404 177.804 67.1939 178.146 66.8945C178.487 66.5951 178.702 66.1669 178.745 65.7025C178.767 65.4694 178.744 65.2339 178.677 65.0103C178.611 64.7866 178.502 64.5793 178.357 64.4006C178.213 64.2219 178.035 64.0756 177.836 63.9703C177.636 63.865 177.418 63.803 177.195 63.7878C175.987 63.7479 175.444 64.436 175.368 65.4135Z" fill="#E98862"/>
<path d="M197.796 115.983C197.796 116.845 197.362 119.724 198.06 119.93C198.479 120.053 198.973 117.907 198.973 117.907" fill="#E98862"/>
<path d="M201.091 115.531C201.091 115.531 203.371 121.345 200.771 124.684C200.705 124.769 200.615 124.831 200.515 124.862C200.414 124.893 200.307 124.892 200.208 124.858C200.108 124.824 200.02 124.76 199.956 124.673C199.892 124.586 199.854 124.481 199.848 124.372C199.722 122.12 199.288 117.495 197.872 118.035V114.404" fill="#E98862"/>
<path d="M149.697 84.5587C149.697 84.5587 146.513 81.9091 146.288 80.9573C146.063 80.0056 148.305 78.1336 148.305 78.1336C148.305 78.1336 145.324 74.9848 145.918 74.5285C146.62 73.9895 150.079 78.5695 150.079 78.5695C150.079 78.5695 149.59 76.9221 150.199 76.8137C150.449 76.7695 150.648 77.0267 151.039 78.1929C151.485 79.5224 152.377 81.5209 152.377 81.5209L149.697 84.5587Z" fill="#E98862"/>
<path d="M153.048 81.0365L162.463 92.1379L169.828 78.323C170.525 76.1406 172.112 74.6788 175.35 74.5334C176.458 74.4837 181.861 74.4756 185.817 74.4756C188.475 74.4756 190.657 75.3302 191.917 76.6507C192.552 77.3062 193.027 78.112 193.302 79.0001L193.34 78.9854L199.671 97.0242C199.741 97.2265 199.792 97.4359 199.823 97.6491L202.378 115.688L196.429 116.612L193.919 98.8945L191.363 91.6093C191.096 92.729 190.951 93.8765 190.929 95.0303C190.929 101.1 193.549 103.822 193.356 106.938C193.053 111.835 170.346 110.678 169.189 107.896C167.998 105.027 170.415 103.26 170.309 93.876C170.298 92.8549 170.222 91.7864 170.119 90.6989L165.651 99.0803C165.417 99.5193 165.086 99.8933 164.686 100.171C164.286 100.449 163.829 100.622 163.352 100.676C162.875 100.731 162.392 100.665 161.944 100.484C161.497 100.303 161.097 100.013 160.778 99.6366L148.399 84.4634L153.048 81.0365Z" fill="#FF6E00"/>
<path d="M110.159 28.5712C110.159 30.4751 111.632 32.0186 113.449 32.0186C115.266 32.0186 116.739 30.4751 116.739 28.5712V25.3738C116.739 23.4699 115.266 21.9264 113.449 21.9264C111.632 21.9264 110.159 23.4699 110.159 25.3738V28.5712Z" fill="#30106B"/>
<path d="M105.757 79.0088C105.769 81.138 106.585 83.1756 108.026 84.6767C109.467 86.1777 111.417 87.0203 113.448 87.0203C115.48 87.0203 117.43 86.1777 118.871 84.6767C120.312 83.1756 121.128 81.138 121.14 79.0088" fill="#F3F5FD"/>
<path d="M105.757 79.0088C105.769 81.138 106.585 83.1756 108.026 84.6767C109.467 86.1777 111.417 87.0203 113.448 87.0203C115.48 87.0203 117.43 86.1777 118.871 84.6767C120.312 83.1756 121.128 81.138 121.14 79.0088" fill="#FF6E00"/>
<path d="M89.3358 79.9974C88.955 79.9974 88.5812 79.8899 88.2537 79.686C87.9263 79.4822 87.6574 79.1896 87.4752 78.8391C87.2931 78.4886 87.2045 78.0931 87.2188 77.6943C87.233 77.2955 87.3496 76.9081 87.5563 76.5729C88.6044 74.8677 89.6616 72.9073 89.858 71.6544C91.146 63.4481 91.8653 48.5295 91.8653 48.5295C91.906 42.5595 94.1978 36.8486 98.2409 32.6422C102.284 28.4358 107.75 26.0752 113.448 26.0752C119.145 26.0752 124.611 28.4358 128.654 32.6422C132.697 36.8486 134.989 42.5595 135.03 48.5295C135.03 48.5295 135.749 63.4481 137.037 71.6544C137.233 72.9073 138.289 74.8674 139.339 76.5729C139.545 76.9081 139.662 77.2956 139.676 77.6944C139.69 78.0932 139.602 78.4887 139.42 78.8392C139.238 79.1897 138.969 79.4823 138.641 79.6861C138.314 79.8899 137.94 79.9975 137.559 79.9974H89.3358Z" fill="#30106B"/>
</g>
</g>
<defs>
<filter id="filter0_d_359_3642" x="0" y="0" width="229" height="203" filterUnits="userSpaceOnUse" color-interpolation-filters="sRGB">
<feFlood flood-opacity="0" result="BackgroundImageFix"/>
<feColorMatrix in="SourceAlpha" type="matrix" values="0 0 0 0 0 0 0 0 0 0 0 0 0 0 0 0 0 0 127 0" result="hardAlpha"/>
<feOffset dy="4"/>
<feGaussianBlur stdDeviation="2"/>
<feComposite in2="hardAlpha" operator="out"/>
<feColorMatrix type="matrix" values="0 0 0 0 0 0 0 0 0 0 0 0 0 0 0 0 0 0 0.25 0"/>
<feBlend mode="normal" in2="BackgroundImageFix" result="effect1_dropShadow_359_3642"/>
<feBlend mode="normal" in="SourceGraphic" in2="effect1_dropShadow_359_3642" result="shape"/>
</filter>
<clipPath id="clip0_359_3642">
<rect width="221" height="195" fill="white" transform="translate(4)"/>
</clipPath>
</defs>
</svg>
