<svg width="175" height="195" viewBox="0 0 175 195" fill="none" xmlns="http://www.w3.org/2000/svg">
<path opacity="0.1" d="M5.03813 167.027C3.47645 155.853 6.50445 143.725 15.2575 133.739C39.2101 106.412 38.1901 111.899 42.4002 79.0113C46.6102 46.123 82.0441 33.294 108.289 47.0026C140.063 63.5977 123.575 69.8352 161.463 97.5445C194.213 121.498 163.862 166.658 109.817 185.599C66.1373 200.907 9.56133 199.388 5.03813 167.027Z" fill="#FF6E00"/>
<path d="M32.2071 70.8945H133.477C135.778 70.8946 137.985 71.8187 139.612 73.4635C141.239 75.1082 142.153 77.3389 142.153 79.6649V157.39C142.153 159.716 141.239 161.947 139.612 163.592C137.985 165.236 135.778 166.16 133.476 166.16H28.3411C26.0399 166.16 23.833 165.236 22.2059 163.592C20.5787 161.947 19.6646 159.716 19.6646 157.39V83.5725C19.6646 80.2102 20.986 76.9855 23.3382 74.6079C25.6903 72.2303 28.8806 70.8946 32.2071 70.8945Z" fill="#33106E"/>
<path d="M141.047 78.335H28.3411C23.5492 78.335 19.6646 82.2615 19.6646 87.1051V164.83C19.6646 169.674 23.5492 173.6 28.3411 173.6H141.047C145.839 173.6 149.724 169.674 149.724 164.83V87.1051C149.724 82.2615 145.839 78.335 141.047 78.335Z" fill="#FF6E00"/>
<path opacity="0.55" d="M141.047 78.335H28.3411C23.5492 78.335 19.6646 82.2615 19.6646 87.1051V164.83C19.6646 169.674 23.5492 173.6 28.3411 173.6H141.047C145.839 173.6 149.724 169.674 149.724 164.83V87.1051C149.724 82.2615 145.839 78.335 141.047 78.335Z" fill="white"/>
<path d="M141.047 173.915H28.341C25.958 173.912 23.6733 172.954 21.9883 171.251C20.3032 169.548 19.3554 167.239 19.3528 164.83V87.1049C19.3555 84.6962 20.3033 82.3869 21.9883 80.6837C23.6734 78.9804 25.958 78.0223 28.341 78.0195H141.047C143.43 78.0224 145.714 78.9805 147.399 80.6837C149.084 82.387 150.032 84.6962 150.035 87.1049V164.83C150.032 167.239 149.084 169.548 147.399 171.251C145.714 172.954 143.43 173.912 141.047 173.915ZM28.341 78.649C26.1232 78.6513 23.9968 79.5429 22.4286 81.1281C20.8604 82.7132 19.9784 84.8625 19.9761 87.1043V164.829C19.9784 167.071 20.8605 169.22 22.4287 170.805C23.9969 172.391 26.1232 173.282 28.341 173.284H141.047C143.265 173.282 145.391 172.39 146.959 170.805C148.527 169.22 149.409 167.071 149.412 164.829V87.1049C149.409 84.8632 148.527 82.7139 146.959 81.1288C145.391 79.5436 143.265 78.652 141.047 78.6496L28.341 78.649Z" fill="#33106E"/>
<path d="M139.823 166.913H137.299V166.283H139.805L139.823 166.913ZM134.791 166.913H132.283V166.283H134.791L134.791 166.913ZM129.777 166.913H127.27V166.283H129.777V166.913ZM124.763 166.913H122.255V166.283H124.762L124.763 166.913ZM119.748 166.913H117.24V166.283H119.747L119.748 166.913ZM114.734 166.913H112.227V166.283H114.734V166.913ZM109.719 166.913H107.212V166.283H109.719V166.913ZM104.705 166.913H102.198V166.283H104.705V166.913ZM99.6909 166.913H97.1836V166.283H99.6909V166.913ZM94.6765 166.913H92.1692V166.283H94.6765V166.913ZM89.6621 166.913H87.155V166.283H89.6621V166.913ZM84.6477 166.913H82.1406V166.283H84.6477V166.913ZM79.6333 166.913H77.1262V166.283H79.6333V166.913ZM74.6189 166.913H72.1118V166.283H74.6189V166.913ZM69.6047 166.913H67.0974V166.283H69.6047V166.913ZM64.5903 166.913H62.083V166.283H64.5903V166.913ZM59.5759 166.913H57.0688V166.283H59.5759V166.913ZM54.5616 166.913H52.0545V166.283H54.5616V166.913ZM49.5472 166.913H47.0401V166.283H49.5472V166.913ZM44.533 166.913H42.0257V166.283H44.533V166.913ZM39.5186 166.913H37.0113V166.283H39.5186V166.913ZM34.5042 166.913H31.9971V166.283H34.5042V166.913ZM29.4788 166.91C28.5781 166.879 27.7057 166.585 26.9663 166.064L27.3224 165.547C27.9634 165.999 28.7199 166.254 29.501 166.282L29.4788 166.91ZM142.362 166.15L142.023 165.622C142.679 165.192 143.2 164.581 143.522 163.861L144.09 164.122C143.718 164.951 143.118 165.655 142.362 166.15ZM25.3042 163.98C25.0675 163.403 24.9461 162.785 24.9473 162.161V161.37H25.5706V162.161C25.5695 162.702 25.6748 163.239 25.8802 163.739L25.3042 163.98ZM144.509 161.514H143.885V158.98H144.509V161.514ZM25.5706 158.836H24.9473V156.302H25.5706V158.836ZM144.508 156.446H143.885V153.911H144.508V156.446ZM25.5706 153.767H24.9473V151.233H25.5706V153.767ZM144.508 151.377H143.885V148.843H144.508V151.377ZM25.5706 148.699H24.9473V146.165H25.5706V148.699ZM144.508 146.309H143.885V143.774H144.508V146.309ZM25.5706 143.631H24.9473V141.096H25.5706V143.631ZM144.508 141.24H143.885V138.706H144.508V141.24ZM25.5706 138.562H24.9473V136.028H25.5706V138.562ZM144.508 136.172H143.885V133.637H144.508V136.172ZM25.5706 133.494H24.9473V130.96H25.5706V133.494ZM144.508 131.103H143.885V128.569H144.508V131.103ZM25.5706 128.425H24.9473V125.891H25.5706V128.425ZM144.508 126.034H143.885V123.501H144.508V126.034ZM25.5706 123.357H24.9473V120.823H25.5706V123.357ZM144.508 120.967H143.885V118.432H144.508V120.967ZM25.5706 118.289H24.9473V115.754H25.5706V118.289ZM144.508 115.898H143.885V113.364H144.508V115.898ZM25.5706 113.22H24.9473V110.686H25.5706V113.22ZM144.508 110.829H143.885V108.296H144.508V110.829ZM25.5706 108.152H24.9473V105.618H25.5706V108.152ZM144.508 105.761H143.885V103.227H144.508V105.761ZM25.5706 103.083H24.9473V100.549H25.5706V103.083ZM144.508 100.693H143.885V98.1586H144.508V100.693ZM25.5706 98.0149H24.9473V95.4806H25.5706V98.0149ZM144.508 95.6245H143.885V93.0901H144.508V95.6245ZM25.5706 92.9465H24.9473V90.4121H25.5706V92.9465ZM144.508 90.556H143.885V89.7743C143.886 89.2301 143.78 88.6911 143.573 88.1888L144.148 87.9463C144.387 88.5251 144.51 89.1462 144.509 89.7734L144.508 90.556ZM25.9361 88.0658L25.3689 87.8045C25.7424 86.9759 26.3435 86.2731 27.1007 85.7797L27.439 86.3087C26.7821 86.737 26.2605 87.3468 25.9361 88.0658ZM142.126 86.3835C141.484 85.9334 140.727 85.6801 139.946 85.6541L139.967 85.024C140.868 85.0539 141.741 85.346 142.481 85.8653L142.126 86.3835ZM137.45 85.6516H134.943V85.0215H137.45L137.45 85.6516ZM132.435 85.6516H129.928V85.0215H132.435V85.6516ZM127.421 85.6516H124.914V85.0215H127.421L127.421 85.6516ZM122.407 85.6516H119.9V85.0215H122.407L122.407 85.6516ZM117.392 85.6516H114.885V85.0215H117.392V85.6516ZM112.378 85.6516H109.871V85.0215H112.378L112.378 85.6516ZM107.363 85.6516H104.856V85.0215H107.363V85.6516ZM102.349 85.6516H99.8419V85.0215H102.349V85.6516ZM97.3348 85.6516H94.8275V85.0215H97.3346L97.3348 85.6516ZM92.3204 85.6516H89.8129V85.0215H92.3202L92.3204 85.6516ZM87.3061 85.6516H84.799V85.0215H87.3061V85.6516ZM82.2917 85.6516H79.7846V85.0215H82.2912L82.2917 85.6516ZM77.2773 85.6516H74.7696V85.0215H77.2766L77.2773 85.6516ZM72.2631 85.6516H69.7558V85.0215H72.2631V85.6516ZM67.2487 85.6516H64.7414V85.0215H67.2479L67.2487 85.6516ZM62.2343 85.6516H59.7262V85.0215H62.2333L62.2343 85.6516ZM57.2199 85.6516H54.7128V85.0215H57.2199V85.6516ZM52.2055 85.6516H49.6984V85.0215H52.2055V85.6516ZM47.1913 85.6516H44.684V85.0215H47.1913V85.6516ZM42.1769 85.6516H39.6696V85.0215H42.1769V85.6516ZM37.1625 85.6516H34.6555V85.0215H37.1625V85.6516ZM32.1482 85.6516H29.6496L29.6411 85.0215H32.1482V85.6516Z" fill="white"/>
<path d="M110.545 111.173H150.22C151.466 111.173 152.661 111.673 153.542 112.564C154.423 113.454 154.918 114.662 154.918 115.921V136.014C154.918 137.273 154.423 138.481 153.542 139.371C152.661 140.262 151.466 140.762 150.22 140.762H110.545C109.151 140.762 107.814 140.202 106.828 139.206C105.842 138.209 105.289 136.858 105.289 135.448V116.487C105.289 115.789 105.424 115.098 105.689 114.453C105.953 113.809 106.34 113.223 106.828 112.729C107.316 112.236 107.896 111.844 108.534 111.577C109.171 111.31 109.855 111.173 110.545 111.173Z" fill="white"/>
<path d="M150.22 141.077H110.546C109.069 141.075 107.654 140.482 106.61 139.427C105.566 138.371 104.979 136.941 104.977 135.449V116.487C104.979 114.995 105.566 113.564 106.61 112.509C107.654 111.454 109.069 110.86 110.546 110.858H150.22C151.549 110.86 152.822 111.394 153.761 112.343C154.7 113.292 155.228 114.579 155.23 115.922V136.014C155.228 137.357 154.7 138.644 153.761 139.593C152.822 140.542 151.548 141.076 150.22 141.077ZM110.546 111.488C109.235 111.49 107.978 112.017 107.051 112.954C106.124 113.891 105.602 115.161 105.6 116.486V135.447C105.602 136.773 106.124 138.043 107.051 138.98C107.978 139.917 109.235 140.444 110.546 140.446H150.22C151.383 140.445 152.498 139.977 153.32 139.146C154.143 138.315 154.605 137.188 154.606 136.013V115.92C154.605 114.744 154.143 113.618 153.32 112.786C152.498 111.955 151.383 111.488 150.22 111.487L110.546 111.488Z" fill="#33106E"/>
<path d="M119.578 133.202C123.531 133.202 126.735 129.963 126.735 125.968C126.735 121.972 123.531 118.733 119.578 118.733C115.625 118.733 112.421 121.972 112.421 125.968C112.421 129.963 115.625 133.202 119.578 133.202Z" fill="white"/>
<path d="M119.578 133.517C118.1 133.517 116.656 133.074 115.428 132.245C114.2 131.415 113.243 130.236 112.678 128.856C112.112 127.477 111.964 125.959 112.253 124.494C112.541 123.03 113.252 121.685 114.297 120.629C115.342 119.573 116.672 118.854 118.121 118.563C119.57 118.272 121.072 118.421 122.437 118.993C123.801 119.564 124.968 120.532 125.789 121.773C126.609 123.015 127.047 124.474 127.047 125.968C127.045 127.969 126.258 129.889 124.857 131.304C123.457 132.719 121.558 133.515 119.578 133.517ZM119.578 119.048C118.224 119.048 116.9 119.454 115.774 120.215C114.649 120.975 113.771 122.056 113.253 123.32C112.735 124.585 112.6 125.976 112.864 127.318C113.128 128.661 113.78 129.893 114.738 130.861C115.695 131.829 116.915 132.488 118.243 132.755C119.571 133.021 120.947 132.884 122.198 132.361C123.449 131.837 124.518 130.95 125.27 129.812C126.023 128.674 126.424 127.336 126.424 125.968C126.422 124.133 125.7 122.374 124.417 121.077C123.133 119.78 121.393 119.05 119.578 119.048Z" fill="#33106E"/>
<path d="M4.64537 111.322C4.58572 111.322 4.52666 111.31 4.47155 111.287C4.41645 111.264 4.36637 111.23 4.3242 111.187C4.28202 111.145 4.24856 111.094 4.22574 111.039C4.20291 110.983 4.19116 110.923 4.19116 110.863V97.9093C4.19116 97.7875 4.23902 97.6708 4.3242 97.5847C4.40938 97.4986 4.52491 97.4502 4.64537 97.4502C4.76584 97.4502 4.88137 97.4986 4.96655 97.5847C5.05173 97.6708 5.09958 97.7875 5.09958 97.9093V110.863C5.09958 110.985 5.05173 111.101 4.96655 111.187C4.88137 111.274 4.76584 111.322 4.64537 111.322Z" fill="#33106E"/>
<path d="M8.82672 104.845H0.463925C0.403473 104.846 0.343372 104.835 0.287145 104.813C0.230919 104.79 0.179698 104.757 0.136488 104.714C0.093278 104.671 0.0589476 104.62 0.0355101 104.564C0.0120727 104.507 0 104.447 0 104.386C0 104.325 0.0120727 104.264 0.0355101 104.208C0.0589476 104.152 0.093278 104.101 0.136488 104.058C0.179698 104.015 0.230919 103.981 0.287145 103.959C0.343372 103.936 0.403473 103.926 0.463925 103.927H8.82672C8.94547 103.929 9.05851 103.979 9.14159 104.065C9.22468 104.151 9.27121 104.266 9.27121 104.386C9.27121 104.506 9.22468 104.621 9.14159 104.707C9.05851 104.793 8.94547 104.842 8.82672 104.845Z" fill="#33106E"/>
<path d="M165.5 129.765C165.415 129.765 165.334 129.731 165.274 129.67C165.214 129.609 165.18 129.527 165.18 129.441V122.493C165.179 122.45 165.186 122.407 165.202 122.367C165.218 122.327 165.241 122.29 165.271 122.259C165.301 122.228 165.336 122.203 165.376 122.187C165.415 122.17 165.458 122.161 165.5 122.161C165.543 122.161 165.585 122.17 165.625 122.187C165.664 122.203 165.7 122.228 165.73 122.259C165.76 122.29 165.783 122.327 165.799 122.367C165.814 122.407 165.822 122.45 165.821 122.493V129.441C165.821 129.484 165.812 129.526 165.796 129.565C165.78 129.604 165.757 129.64 165.727 129.67C165.697 129.7 165.662 129.724 165.623 129.74C165.584 129.756 165.542 129.765 165.5 129.765Z" fill="#33106E"/>
<path d="M167.743 126.291H163.258C163.215 126.292 163.172 126.285 163.133 126.269C163.093 126.253 163.057 126.229 163.026 126.199C162.995 126.169 162.971 126.133 162.954 126.093C162.938 126.053 162.929 126.011 162.929 125.967C162.929 125.924 162.938 125.881 162.954 125.842C162.971 125.802 162.995 125.766 163.026 125.736C163.057 125.705 163.093 125.682 163.133 125.666C163.172 125.65 163.215 125.643 163.258 125.644H167.743C167.827 125.646 167.906 125.681 167.965 125.741C168.023 125.802 168.056 125.883 168.056 125.967C168.056 126.052 168.023 126.133 167.965 126.193C167.906 126.254 167.827 126.289 167.743 126.291Z" fill="#33106E"/>
<path d="M160.374 70.8945C160.332 70.8945 160.29 70.8862 160.252 70.8699C160.213 70.8537 160.177 70.8298 160.148 70.7998C160.118 70.7697 160.094 70.734 160.078 70.6948C160.062 70.6555 160.054 70.6134 160.054 70.5709V63.6231C160.053 63.5799 160.06 63.5369 160.076 63.4967C160.091 63.4564 160.115 63.4198 160.145 63.3888C160.175 63.3579 160.21 63.3333 160.25 63.3165C160.289 63.2997 160.331 63.291 160.374 63.291C160.417 63.291 160.459 63.2997 160.499 63.3165C160.538 63.3333 160.574 63.3579 160.604 63.3888C160.633 63.4198 160.657 63.4564 160.672 63.4967C160.688 63.5369 160.695 63.5799 160.694 63.6231V70.5709C160.694 70.6567 160.661 70.739 160.601 70.7997C160.541 70.8604 160.459 70.8945 160.374 70.8945Z" fill="#33106E"/>
<path d="M162.617 67.421H158.132C158.089 67.4221 158.046 67.4146 158.006 67.3988C157.967 67.383 157.93 67.3594 157.9 67.3292C157.869 67.299 157.845 67.263 157.828 67.2231C157.812 67.1833 157.803 67.1405 157.803 67.0973C157.803 67.0541 157.812 67.0113 157.828 66.9715C157.845 66.9316 157.869 66.8956 157.9 66.8654C157.93 66.8352 157.967 66.8116 158.006 66.7958C158.046 66.78 158.089 66.7724 158.132 66.7735H162.617C162.701 66.7757 162.78 66.8107 162.838 66.8712C162.897 66.9317 162.929 67.0128 162.929 67.0973C162.929 67.1818 162.897 67.2629 162.838 67.3234C162.78 67.3838 162.701 67.4189 162.617 67.421H162.617Z" fill="#33106E"/>
<path d="M37.7728 26.6053C37.1759 26.6188 36.5972 26.3962 36.1602 25.9849C35.7232 25.5737 35.4622 25.0062 35.4329 24.4033C35.4037 23.8005 35.6084 23.2099 36.0035 22.7573C36.3985 22.3047 36.9528 22.0259 37.5482 21.9803C38.1437 21.9346 38.7332 22.1257 39.1913 22.5128C39.6494 22.9 39.94 23.4526 40.001 24.053C40.0621 24.6534 39.8888 25.2542 39.5182 25.7274C39.1475 26.2006 38.6087 26.5089 38.0166 26.5866C37.9357 26.5971 37.8544 26.6034 37.7728 26.6053ZM37.6887 22.6598C37.6317 22.661 37.5748 22.6654 37.5183 22.6729C37.1008 22.7273 36.7209 22.9444 36.4594 23.2779C36.1979 23.6113 36.0756 24.0348 36.1184 24.458C36.1612 24.8813 36.3659 25.271 36.6887 25.544C37.0116 25.817 37.4271 25.9519 37.8469 25.9198C38.2666 25.8877 38.6574 25.6912 38.936 25.3722C39.2145 25.0532 39.3589 24.6369 39.3382 24.212C39.3176 23.787 39.1337 23.3869 38.8256 23.097C38.5174 22.8071 38.1095 22.6502 37.6887 22.6598Z" fill="#33106E"/>
<path d="M39.1716 21.4629C38.607 21.4749 38.058 21.2755 37.63 20.903C37.2021 20.5306 36.9255 20.0113 36.8534 19.4452C36.7957 18.9914 36.8724 18.5305 37.0738 18.1208C37.2752 17.7111 37.5922 17.3709 37.9849 17.1434C38.3776 16.9158 38.8282 16.811 39.2797 16.8423C39.7313 16.8736 40.1635 17.0395 40.5218 17.3191C40.8801 17.5987 41.1483 17.9794 41.2925 18.4131C41.4367 18.8468 41.4504 19.3139 41.332 19.7555C41.2135 20.197 40.9682 20.5932 40.627 20.8938C40.2858 21.1944 39.8641 21.386 39.4152 21.4444C39.3344 21.4548 39.2531 21.461 39.1716 21.4629ZM39.0885 17.5172C38.8619 17.522 38.6388 17.575 38.4337 17.6727C38.2287 17.7704 38.0463 17.9106 37.8984 18.0843C37.7505 18.2579 37.6404 18.4611 37.5753 18.6806C37.5102 18.9001 37.4916 19.131 37.5206 19.3582C37.5606 19.671 37.6894 19.9653 37.8914 20.2057C38.0933 20.446 38.3599 20.6221 38.6587 20.7126C38.9576 20.803 39.276 20.8041 39.5755 20.7156C39.8749 20.6271 40.1426 20.4528 40.3461 20.2137C40.5496 19.9747 40.6803 19.6813 40.7223 19.3688C40.7643 19.0563 40.7159 18.7382 40.5829 18.453C40.4499 18.1677 40.238 17.9275 39.9728 17.7614C39.7076 17.5953 39.4004 17.5104 39.0885 17.517V17.5172Z" fill="#33106E"/>
<path d="M41.3267 22.4612C41.6194 21.3851 40.5646 20.1536 38.9707 19.7106C37.3768 19.2677 35.8474 19.781 35.5547 20.8571C35.262 21.9333 36.3168 23.1647 37.9107 23.6077C39.5046 24.0506 41.034 23.5373 41.3267 22.4612Z" fill="white"/>
<path d="M39.1463 24.1064C38.6989 24.1147 38.2526 24.0573 37.8215 23.9359C36.0209 23.4354 34.8826 22.0433 35.23 20.767C35.5775 19.4907 37.2596 18.8827 39.0597 19.3826C39.8485 19.5863 40.5613 20.0185 41.1107 20.6259C41.6316 21.235 41.8236 21.9178 41.6509 22.5514C41.4782 23.185 40.9679 23.6735 40.2126 23.927C39.8679 24.0399 39.5086 24.1003 39.1463 24.1064ZM37.7604 19.8954C36.8214 19.9164 36.0524 20.3109 35.8794 20.9472C35.6402 21.8258 36.6114 22.8937 37.9987 23.2795C38.6514 23.4766 39.3467 23.4772 39.9997 23.2812C40.5345 23.1016 40.8902 22.7784 41.001 22.371C41.1117 21.9635 40.9696 21.5021 40.6006 21.0714C40.1386 20.5656 39.5408 20.2068 38.8803 20.0389C38.5159 19.9365 38.1386 19.8881 37.7604 19.8954Z" fill="#33106E"/>
<path d="M38.633 23.745L39.5985 19.9377L38.6772 19.6396L37.5554 23.4923L38.633 23.745Z" fill="#33106E"/>
<path d="M34.4699 21.4273C34.6405 21.4273 34.7788 21.2875 34.7788 21.115C34.7788 20.9426 34.6405 20.8027 34.4699 20.8027C34.2992 20.8027 34.1609 20.9426 34.1609 21.115C34.1609 21.2875 34.2992 21.4273 34.4699 21.4273Z" fill="#33106E"/>
<path d="M35.1422 19.8805C35.3129 19.8805 35.4512 19.7406 35.4512 19.5682C35.4512 19.3957 35.3129 19.2559 35.1422 19.2559C34.9716 19.2559 34.8333 19.3957 34.8333 19.5682C34.8333 19.7406 34.9716 19.8805 35.1422 19.8805Z" fill="#33106E"/>
<path d="M72.2363 63.0585C72.1922 63.0586 72.1492 63.0444 72.1136 63.0181C72.078 62.9918 72.0515 62.9548 72.0381 62.9123C72.0247 62.8698 72.025 62.8241 72.039 62.7818C72.053 62.7396 72.08 62.7029 72.116 62.6771C72.2534 62.5736 72.3855 62.4632 72.5118 62.3461C72.5321 62.3277 72.5558 62.3135 72.5815 62.3043C72.6073 62.2951 72.6345 62.2911 72.6618 62.2926C72.6891 62.2941 72.7158 62.301 72.7404 62.3129C72.765 62.3248 72.7871 62.3415 72.8053 62.362C72.8235 62.3825 72.8376 62.4064 72.8467 62.4325C72.8558 62.4585 72.8597 62.486 72.8582 62.5136C72.8568 62.5411 72.85 62.5681 72.8382 62.593C72.8264 62.6179 72.8099 62.6402 72.7896 62.6586C72.6513 62.7867 72.5065 62.9074 72.3558 63.0203C72.3208 63.0452 72.2791 63.0585 72.2363 63.0585ZM74.2987 60.8067C74.2606 60.8066 74.2233 60.796 74.1908 60.7759C74.1583 60.7559 74.1318 60.7272 74.1143 60.693C74.0969 60.6588 74.089 60.6204 74.0917 60.582C74.0943 60.5436 74.1074 60.5067 74.1294 60.4752C74.6038 59.7938 75.0193 59.0724 75.3713 58.3189C75.3824 58.2932 75.3986 58.2699 75.4188 58.2505C75.439 58.2312 75.4628 58.2161 75.4889 58.2063C75.515 58.1964 75.5427 58.192 75.5705 58.1932C75.5984 58.1944 75.6256 58.2012 75.6508 58.2133C75.6759 58.2253 75.6984 58.2424 75.7169 58.2634C75.7354 58.2844 75.7496 58.309 75.7585 58.3356C75.7674 58.3622 75.771 58.3904 75.7689 58.4185C75.7669 58.4465 75.7593 58.4739 75.7466 58.4989C75.3845 59.2743 74.9569 60.0167 74.4685 60.7178C74.4493 60.7453 74.4239 60.7677 74.3943 60.7831C74.3648 60.7986 74.332 60.8067 74.2987 60.8067ZM76.4538 56.2551C76.4336 56.255 76.4134 56.252 76.394 56.2462C76.3412 56.2302 76.2969 56.1936 76.2708 56.1446C76.2447 56.0956 76.239 56.0381 76.2548 55.9847C76.4904 55.184 76.6732 54.3684 76.8019 53.5432C76.8058 53.5157 76.8151 53.4892 76.8293 53.4654C76.8434 53.4415 76.8621 53.4207 76.8843 53.4042C76.9065 53.3877 76.9317 53.3758 76.9584 53.3692C76.9852 53.3627 77.0129 53.3615 77.0401 53.3659C77.0673 53.3703 77.0934 53.3801 77.1168 53.3947C77.1402 53.4093 77.1605 53.4285 77.1765 53.4512C77.1925 53.4738 77.2039 53.4994 77.2101 53.5266C77.2162 53.5537 77.2169 53.5818 77.2122 53.6092C77.0807 54.4528 76.8938 55.2867 76.6529 56.1053C76.6401 56.1486 76.6138 56.1865 76.5779 56.2135C76.542 56.2405 76.4985 56.2551 76.4538 56.2551ZM77.2523 51.267H77.2436C77.1886 51.2647 77.1367 51.2404 77.0993 51.1995C77.062 51.1585 77.0423 51.1042 77.0446 51.0486C77.0579 50.7233 77.0653 50.3891 77.0653 50.0556C77.0657 49.5545 77.0339 49.0538 76.97 48.5569C76.9661 48.5294 76.9676 48.5013 76.9745 48.4744C76.9814 48.4475 76.9935 48.4222 77.0101 48.4001C77.0268 48.378 77.0476 48.3594 77.0714 48.3454C77.0952 48.3315 77.1215 48.3224 77.1487 48.3188C77.176 48.3152 77.2037 48.3171 77.2303 48.3244C77.2568 48.3317 77.2816 48.3443 77.3033 48.3614C77.325 48.3785 77.3432 48.3997 77.3567 48.424C77.3702 48.4482 77.3788 48.4749 77.382 48.5025C77.4482 49.0175 77.4813 49.5363 77.4809 50.0556C77.4809 50.395 77.474 50.7348 77.4601 51.0658C77.4578 51.1199 77.4349 51.1711 77.3962 51.2085C77.3575 51.246 77.3059 51.2669 77.2523 51.2668V51.267ZM76.5667 46.2895C76.5245 46.2895 76.4834 46.2766 76.4487 46.2524C76.414 46.2283 76.3874 46.194 76.3724 46.1542C76.0798 45.3801 75.6993 44.6428 75.2385 43.9574C75.2232 43.9346 75.2125 43.9089 75.207 43.8819C75.2015 43.8548 75.2013 43.827 75.2064 43.7999C75.2116 43.7728 75.2219 43.747 75.2369 43.7239C75.2519 43.7009 75.2713 43.6811 75.2939 43.6656C75.3165 43.6501 75.3419 43.6392 75.3686 43.6337C75.3954 43.6281 75.4229 43.6279 75.4497 43.6331C75.4765 43.6383 75.5021 43.6488 75.5249 43.664C75.5477 43.6791 75.5673 43.6987 75.5826 43.7215C76.0614 44.4341 76.4568 45.2003 76.7609 46.0049C76.7706 46.0307 76.7752 46.0582 76.7744 46.0857C76.7736 46.1133 76.7674 46.1404 76.7562 46.1656C76.745 46.1908 76.729 46.2134 76.7092 46.2324C76.6893 46.2513 76.6659 46.266 76.6404 46.2758C76.6169 46.2849 76.592 46.2894 76.5669 46.2893L76.5667 46.2895ZM61.2116 45.2856C60.8752 45.3027 60.5389 45.25 60.2234 45.1308C59.9079 45.0117 59.6199 44.8284 59.3771 44.5925C59.3389 44.5523 59.3181 44.4985 59.3192 44.4428C59.3203 44.3871 59.3432 44.3341 59.3829 44.2955C59.4226 44.2569 59.4759 44.2359 59.531 44.237C59.5861 44.2381 59.6385 44.2613 59.6767 44.3014C60.1218 44.7691 60.8253 44.9502 61.7296 44.8298L61.8387 44.8145C61.8932 44.8066 61.9487 44.821 61.9928 44.8544C62.0368 44.8878 62.066 44.9376 62.0738 44.9927C62.0816 45.0478 62.0674 45.1039 62.0343 45.1484C62.0013 45.193 61.952 45.2225 61.8975 45.2303L61.7847 45.2463C61.595 45.272 61.404 45.2852 61.2126 45.2858L61.2116 45.2856ZM64.2627 44.523C64.2155 44.5235 64.1695 44.5077 64.1323 44.4782C64.0952 44.4488 64.0691 44.4074 64.0583 44.361C64.0475 44.3145 64.0527 44.2657 64.073 44.2226C64.0933 44.1795 64.1275 44.1447 64.17 44.1239C64.895 43.7742 65.5144 43.235 65.9642 42.5622C65.9953 42.5177 66.0424 42.4873 66.0954 42.4772C66.1483 42.4671 66.2031 42.4782 66.2481 42.5082C66.2931 42.5382 66.3249 42.5847 66.3366 42.6379C66.3483 42.6911 66.3391 42.7468 66.311 42.7932C65.8209 43.5278 65.1456 44.1168 64.3549 44.4993C64.3268 44.5142 64.2955 44.5224 64.2637 44.5232L64.2627 44.523ZM59.0559 42.273C59.04 42.2731 59.0242 42.2714 59.0087 42.2678C58.9821 42.2616 58.957 42.2501 58.9348 42.2341C58.9126 42.218 58.8937 42.1977 58.8792 42.1743C58.8648 42.1509 58.855 42.1249 58.8505 42.0977C58.8461 42.0705 58.8469 42.0426 58.8531 42.0157C59.0647 41.1562 59.4904 40.3657 60.0898 39.7196C60.1276 39.6805 60.179 39.6578 60.233 39.6564C60.2871 39.655 60.3396 39.675 60.3793 39.7121C60.419 39.7491 60.4429 39.8004 60.4458 39.855C60.4488 39.9096 60.4305 39.9631 60.395 40.0044C59.8445 40.5967 59.4531 41.3216 59.258 42.11C59.2476 42.1562 59.2221 42.1974 59.1856 42.227C59.1491 42.2566 59.1037 42.2729 59.0569 42.2732L59.0559 42.273ZM73.7907 42.1214C73.7372 42.1215 73.6857 42.1005 73.6471 42.063C73.0508 41.4891 72.4031 40.9724 71.7123 40.5195C71.6886 40.5049 71.6681 40.4856 71.6519 40.4628C71.6357 40.44 71.6242 40.4141 71.6181 40.3867C71.612 40.3594 71.6114 40.3311 71.6163 40.3034C71.6212 40.2758 71.6315 40.2495 71.6466 40.2259C71.6617 40.2024 71.6814 40.1822 71.7044 40.1665C71.7274 40.1508 71.7532 40.1399 71.7805 40.1344C71.8077 40.129 71.8357 40.1291 71.8629 40.1348C71.8901 40.1405 71.9159 40.1516 71.9387 40.1675C72.6511 40.6345 73.3188 41.1675 73.9334 41.7595C73.9635 41.7885 73.9842 41.8259 73.993 41.8669C74.0018 41.9079 73.9982 41.9506 73.9828 41.9895C73.9673 42.0285 73.9407 42.0618 73.9063 42.0853C73.8719 42.1088 73.8314 42.1214 73.7899 42.1214H73.7907ZM66.9312 40.5137C66.9241 40.5137 66.9173 40.5137 66.9104 40.5137C66.8832 40.5109 66.8568 40.5027 66.8327 40.4896C66.8086 40.4764 66.7873 40.4586 66.7701 40.4372C66.7528 40.4157 66.7399 40.391 66.7321 40.3645C66.7243 40.338 66.7218 40.3101 66.7247 40.2826C66.7483 40.0426 66.76 39.8014 66.7596 39.5602C66.7557 38.9762 66.6995 38.3938 66.5917 37.8201C66.5817 37.7653 66.5936 37.7088 66.6249 37.6629C66.6561 37.617 66.7041 37.5856 66.7583 37.5754C66.8125 37.5653 66.8685 37.5774 66.9139 37.609C66.9593 37.6406 66.9904 37.6891 67.0004 37.7439C67.0298 37.9056 67.0555 38.0654 67.0777 38.2232C67.1023 38.1928 67.1348 38.1701 67.1715 38.1575C67.2082 38.1448 67.2477 38.1429 67.2855 38.1517C68.1116 38.3493 68.919 38.6193 69.6986 38.9587C69.7493 38.9806 69.7892 39.022 69.8097 39.0738C69.8301 39.1255 69.8294 39.1833 69.8076 39.2345C69.7859 39.2857 69.7449 39.3261 69.6937 39.3467C69.6426 39.3674 69.5854 39.3666 69.5347 39.3447C68.7774 39.0149 67.993 38.7527 67.1905 38.5609C67.1633 38.5543 67.1377 38.5424 67.1151 38.5258C67.154 38.8692 67.1739 39.2145 67.1747 39.5602C67.175 39.8154 67.1627 40.0706 67.1377 40.3246C67.1326 40.3764 67.1086 40.4244 67.0705 40.4593C67.0323 40.4942 66.9827 40.5136 66.9312 40.5137ZM62.2977 38.6575C62.2493 38.6575 62.2024 38.6405 62.1652 38.6093C62.1279 38.5781 62.1025 38.5348 62.0935 38.4868C62.0844 38.4388 62.0922 38.3891 62.1155 38.3462C62.1389 38.3034 62.1762 38.2701 62.2212 38.2521C62.3496 38.2009 62.4801 38.1538 62.6091 38.1125C63.2763 37.9109 63.97 37.814 64.6662 37.825H64.7566C64.8117 37.825 64.8645 37.8471 64.9035 37.8865C64.9425 37.9259 64.9643 37.9793 64.9643 38.035C64.9643 38.0907 64.9425 38.1441 64.9035 38.1835C64.8645 38.2229 64.8117 38.245 64.7566 38.245H64.7551H64.667C64.0138 38.234 63.3628 38.3244 62.7367 38.5128C62.613 38.5525 62.4926 38.5958 62.3754 38.6426C62.3505 38.6524 62.324 38.6573 62.2973 38.6569L62.2977 38.6575ZM66.1194 35.5542C66.0769 35.5542 66.0354 35.541 66.0006 35.5164C65.9657 35.4918 65.9392 35.457 65.9245 35.4166C65.6362 34.6321 65.3024 33.8654 64.9249 33.1205C64.9124 33.0959 64.9049 33.0691 64.9027 33.0415C64.9005 33.014 64.9038 32.9863 64.9122 32.9601C64.9206 32.9338 64.9341 32.9095 64.9518 32.8885C64.9695 32.8674 64.9912 32.8502 65.0155 32.8376C65.0398 32.8251 65.0664 32.8176 65.0936 32.8154C65.1209 32.8132 65.1482 32.8165 65.1742 32.8251C65.2002 32.8336 65.2242 32.8473 65.245 32.8653C65.2657 32.8832 65.2828 32.9051 65.2951 32.9298C65.6802 33.6895 66.0206 34.4716 66.3145 35.2719C66.326 35.3037 66.3298 35.3377 66.3255 35.3713C66.3211 35.4048 66.3089 35.4367 66.2897 35.4645C66.2706 35.4922 66.2451 35.5148 66.2154 35.5304C66.1858 35.546 66.1528 35.5542 66.1194 35.5542ZM63.8652 31.0356C63.8301 31.0356 63.7956 31.0267 63.7649 31.0097C63.7342 30.9926 63.7082 30.968 63.6894 30.9381C63.2491 30.2368 62.7696 29.5423 62.2644 28.874C62.231 28.8298 62.2162 28.7739 62.2235 28.7187C62.2308 28.6634 62.2595 28.6134 62.3033 28.5796C62.3471 28.5457 62.4024 28.5308 62.457 28.5382C62.5116 28.5456 62.5611 28.5746 62.5946 28.6188C63.107 29.297 63.5934 30.0016 64.0403 30.7128C64.0699 30.7598 64.0797 30.8167 64.0677 30.8711C64.0557 30.9254 64.0229 30.9727 63.9763 31.0026C63.943 31.024 63.9043 31.0352 63.8648 31.0349L63.8652 31.0356ZM60.8222 27.0113C60.7933 27.0114 60.7648 27.0053 60.7383 26.9936C60.7119 26.9818 60.6882 26.9646 60.6687 26.9431C60.4148 26.6627 60.1555 26.3888 59.8982 26.1286C59.5774 25.8044 59.2396 25.498 58.8861 25.2106C58.8641 25.1936 58.8456 25.1723 58.8318 25.148C58.818 25.1236 58.8092 25.0968 58.8059 25.0689C58.8025 25.0411 58.8047 25.0129 58.8123 24.9859C58.82 24.959 58.8328 24.9338 58.8502 24.912C58.8676 24.8901 58.8891 24.872 58.9136 24.8587C58.938 24.8454 58.9648 24.8372 58.9924 24.8345C59.02 24.8319 59.0478 24.8348 59.0743 24.8432C59.1008 24.8516 59.1253 24.8653 59.1465 24.8834C59.5117 25.1801 59.8607 25.4967 60.192 25.8316C60.4536 26.096 60.7171 26.3745 60.9754 26.6597C61.0025 26.6898 61.0204 26.7272 61.0269 26.7673C61.0334 26.8075 61.0283 26.8487 61.012 26.8859C60.9958 26.9232 60.9692 26.9548 60.9355 26.9771C60.9018 26.9994 60.8625 27.0113 60.8222 27.0113ZM56.9184 23.8778C56.8852 23.8777 56.8526 23.8696 56.8231 23.8543C56.0913 23.4734 55.3262 23.1621 54.5375 22.9245C54.4853 22.908 54.4416 22.8714 54.416 22.8226C54.3903 22.7738 54.3847 22.7168 54.4004 22.6639C54.416 22.6109 54.4517 22.5664 54.4997 22.5398C54.5476 22.5133 54.604 22.5069 54.6565 22.5221C55.4704 22.7671 56.26 23.0881 57.015 23.4811C57.0565 23.5026 57.0896 23.5377 57.1089 23.5806C57.1283 23.6234 57.1328 23.6717 57.1218 23.7175C57.1107 23.7633 57.0848 23.804 57.0481 23.833C57.0114 23.8621 56.9661 23.8779 56.9195 23.8778H56.9184ZM44.689 22.9768C44.6394 22.9768 44.5914 22.9588 44.5537 22.9262C44.516 22.8935 44.4911 22.8482 44.4836 22.7986C44.4761 22.749 44.4864 22.6983 44.5126 22.6557C44.5389 22.6131 44.5793 22.5815 44.6267 22.5664C45.4419 22.3285 46.2741 22.1542 47.1157 22.0451C47.1432 22.0403 47.1714 22.0411 47.1986 22.0475C47.2257 22.0539 47.2514 22.0658 47.2739 22.0824C47.2964 22.099 47.3154 22.1201 47.3298 22.1443C47.3441 22.1685 47.3534 22.1954 47.3572 22.2233C47.361 22.2513 47.3592 22.2797 47.3519 22.307C47.3446 22.3342 47.332 22.3596 47.3147 22.3818C47.2975 22.404 47.276 22.4224 47.2516 22.436C47.2271 22.4496 47.2002 22.4581 47.1724 22.461C46.354 22.5681 45.5448 22.7373 44.7516 22.9673C44.7313 22.9737 44.7102 22.9768 44.689 22.9768ZM52.1453 22.4133C52.1363 22.4133 52.1274 22.4127 52.1185 22.4116C51.2985 22.3064 50.4723 22.2598 49.6459 22.2722H49.6432C49.5881 22.2725 49.5351 22.2507 49.4958 22.2116C49.4566 22.1725 49.4344 22.1192 49.434 22.0635C49.4337 22.0078 49.4552 21.9542 49.4939 21.9146C49.5326 21.875 49.5854 21.8525 49.6405 21.8521C50.4863 21.8412 51.3319 21.8889 52.1712 21.9949C52.2236 22.0017 52.2715 22.0283 52.3052 22.0695C52.3388 22.1106 52.3557 22.1632 52.3524 22.2164C52.3491 22.2697 52.3258 22.3197 52.2873 22.3563C52.2489 22.3928 52.1981 22.4132 52.1453 22.4133Z" fill="#2743FD"/>
<path d="M139.129 4.8217C138.683 4.90266 138.223 4.85442 137.802 4.68255C137.382 4.51068 137.019 4.22219 136.754 3.85037C136.489 3.47855 136.333 3.03856 136.305 2.58118C136.276 2.12381 136.377 1.66769 136.594 1.26547C136.811 0.863256 137.137 0.531338 137.533 0.308028C137.929 0.0847185 138.379 -0.0208805 138.832 0.00341931C139.284 0.0277191 139.721 0.180927 140.091 0.445361C140.462 0.709794 140.75 1.07467 140.924 1.49788C141.061 1.8335 141.123 2.19588 141.103 2.55847C141.084 2.92106 140.984 3.27466 140.812 3.59337C140.64 3.91208 140.399 4.18781 140.108 4.40035C139.817 4.61289 139.482 4.75686 139.129 4.8217ZM138.395 0.7082C138.043 0.772868 137.719 0.946404 137.468 1.20489C137.218 1.46337 137.052 1.79408 136.995 2.15141C136.939 2.50875 136.993 2.87513 137.151 3.20004C137.308 3.52495 137.562 3.7924 137.876 3.96552C138.191 4.13864 138.551 4.20891 138.906 4.16663C139.262 4.12436 139.596 3.97162 139.862 3.72949C140.128 3.48735 140.313 3.16773 140.392 2.81469C140.471 2.46164 140.44 2.09256 140.302 1.75831C140.151 1.38945 139.879 1.08412 139.532 0.893082C139.185 0.702043 138.784 0.6368 138.395 0.7082Z" fill="#33106E"/>
<path d="M139.113 10.4686C138.506 10.5801 137.879 10.452 137.363 10.1108C136.846 9.76952 136.479 9.24107 136.336 8.63421C136.193 8.02734 136.286 7.38825 136.595 6.84849C136.905 6.30873 137.407 5.90939 137.999 5.73267C138.591 5.55596 139.227 5.61532 139.777 5.89853C140.327 6.18174 140.748 6.66726 140.955 7.25512C141.161 7.84299 141.137 8.48847 140.886 9.05867C140.636 9.62888 140.179 10.0804 139.61 10.3203C139.45 10.3876 139.283 10.4373 139.113 10.4686ZM138.383 6.35428C138.26 6.37679 138.14 6.41256 138.025 6.46098C137.618 6.63253 137.291 6.95517 137.113 7.36251C136.934 7.76986 136.917 8.23092 137.064 8.65085C137.212 9.07078 137.513 9.41763 137.905 9.62005C138.298 9.82246 138.753 9.86505 139.175 9.73904C139.598 9.61303 139.957 9.32801 140.178 8.94262C140.4 8.55723 140.466 8.10079 140.365 7.66719C140.263 7.23359 140.001 6.85583 139.632 6.61161C139.264 6.36739 138.816 6.2753 138.383 6.35428Z" fill="#33106E"/>
<path d="M141.865 5.33047C141.868 4.14864 140.452 3.18648 138.702 3.18145C136.951 3.17641 135.529 4.13041 135.526 5.31225C135.523 6.49409 136.939 7.45623 138.69 7.46126C140.44 7.4663 141.862 6.51231 141.865 5.33047Z" fill="white"/>
<path d="M139.598 7.72092C139.298 7.7755 138.994 7.80236 138.689 7.80115C137.831 7.81442 136.988 7.5742 136.263 7.10997C135.569 6.63889 135.188 6 135.19 5.31092C135.192 4.62183 135.576 3.98547 136.273 3.51796C137.007 3.07251 137.847 2.83836 138.703 2.84084C139.559 2.84332 140.398 3.08234 141.129 3.53203C141.823 4.00311 142.204 4.64221 142.202 5.33108C142.2 6.01995 141.815 6.65695 141.119 7.12404C140.657 7.42468 140.14 7.62772 139.598 7.72092ZM137.911 3.59104C137.46 3.66772 137.029 3.83582 136.644 4.08523C136.141 4.42294 135.863 4.85895 135.862 5.31323C135.861 5.7675 136.136 6.2054 136.637 6.54564C137.258 6.92023 137.967 7.11901 138.69 7.12111C139.413 7.12322 140.123 6.92858 140.746 6.55761C141.249 6.21989 141.527 5.78389 141.528 5.32961C141.529 4.87533 141.254 4.43764 140.753 4.0972C140.138 3.70801 139.425 3.50819 138.7 3.52216C138.436 3.5209 138.172 3.54396 137.911 3.59104Z" fill="#33106E"/>
<path d="M137.926 3.24353L137.986 7.40513L139.009 7.45091L139.097 3.19922L137.926 3.24353Z" fill="#33106E"/>
<path d="M142.641 6.86177C142.822 6.86177 142.968 6.71367 142.968 6.53098C142.968 6.34829 142.822 6.2002 142.641 6.2002C142.46 6.2002 142.314 6.34829 142.314 6.53098C142.314 6.71367 142.46 6.86177 142.641 6.86177Z" fill="#33106E"/>
<path d="M142.903 5.09321C143.084 5.09321 143.23 4.94511 143.23 4.76243C143.23 4.57974 143.084 4.43164 142.903 4.43164C142.722 4.43164 142.576 4.57974 142.576 4.76243C142.576 4.94511 142.722 5.09321 142.903 5.09321Z" fill="#33106E"/>
<path d="M93.8577 53.4155C93.8206 53.4155 93.7841 53.4055 93.7521 53.3864C93.7201 53.3673 93.6937 53.34 93.6757 53.3071C93.2846 52.5463 92.9486 51.7577 92.6705 50.9477C92.6517 50.8953 92.6543 50.8376 92.6777 50.7871C92.7011 50.7367 92.7434 50.6977 92.7952 50.6788C92.8471 50.6598 92.9042 50.6625 92.9541 50.6861C93.004 50.7098 93.0426 50.7525 93.0613 50.8049C93.3332 51.5936 93.66 52.3618 94.0393 53.1038C94.0568 53.1358 94.0657 53.1718 94.0653 53.2083C94.0648 53.2448 94.0549 53.2806 94.0365 53.312C94.0182 53.3435 93.9921 53.3696 93.9607 53.3877C93.9293 53.4059 93.8938 53.4154 93.8577 53.4155ZM92.1277 48.6639C92.0817 48.6639 92.0369 48.6484 92.0005 48.6199C91.9641 48.5914 91.9381 48.5515 91.9266 48.5064C91.7188 47.6896 91.5416 46.8495 91.403 46.009C91.3939 45.9541 91.4069 45.8978 91.4389 45.8524C91.471 45.8071 91.5195 45.7765 91.5739 45.7674C91.6282 45.7583 91.684 45.7713 91.7288 45.8037C91.7736 45.8361 91.8039 45.8852 91.8129 45.9401C91.9497 46.7685 92.1232 47.5964 92.3291 48.4014C92.3428 48.4553 92.3348 48.5125 92.3069 48.5605C92.2789 48.6085 92.2332 48.6433 92.1799 48.6572C92.1629 48.6617 92.1453 48.664 92.1277 48.6639ZM91.3024 43.67C91.25 43.6702 91.1995 43.6503 91.161 43.6145C91.1225 43.5786 91.0988 43.5294 91.0946 43.4766C91.0342 42.702 91.0034 41.9157 91.0034 41.1394V40.9265C91.0038 40.8708 91.0261 40.8175 91.0653 40.7784C91.1045 40.7393 91.1576 40.7175 91.2127 40.7179C91.2678 40.7183 91.3205 40.7408 91.3592 40.7805C91.3978 40.8201 91.4194 40.8737 91.419 40.9294V41.1394C91.419 41.9048 91.4493 42.68 91.509 43.4434C91.5133 43.4989 91.4957 43.5539 91.46 43.5963C91.4242 43.6386 91.3733 43.6649 91.3184 43.6694C91.3134 43.6698 91.3081 43.67 91.3024 43.67ZM91.339 38.6085C91.3323 38.6085 91.3259 38.6085 91.3182 38.6085C91.2634 38.6031 91.213 38.5761 91.1779 38.5332C91.1429 38.4903 91.1261 38.4351 91.1312 38.3798C91.2091 37.5376 91.3244 36.687 91.4738 35.8519C91.4779 35.8241 91.4875 35.7973 91.502 35.7733C91.5165 35.7493 91.5356 35.7284 91.5582 35.712C91.5809 35.6956 91.6065 35.6839 91.6337 35.6777C91.6609 35.6716 91.689 35.671 91.7164 35.676C91.7438 35.681 91.7699 35.6915 91.7932 35.7069C91.8165 35.7224 91.8365 35.7424 91.852 35.7658C91.8675 35.7891 91.8782 35.8154 91.8835 35.8431C91.8887 35.8707 91.8884 35.8992 91.8825 35.9267C91.7354 36.75 91.6218 37.5884 91.5449 38.4188C91.5397 38.4704 91.5158 38.5183 91.4778 38.5532C91.4398 38.588 91.3903 38.6074 91.339 38.6076V38.6085ZM92.2277 33.6267C92.2094 33.6268 92.1913 33.6244 92.1736 33.6196C92.1473 33.6125 92.1226 33.6001 92.1009 33.5833C92.0793 33.5665 92.0611 33.5456 92.0475 33.5217C92.0338 33.4978 92.025 33.4715 92.0214 33.4441C92.0179 33.4168 92.0197 33.389 92.0267 33.3623C92.2426 32.5504 92.4961 31.7315 92.7806 30.9282C92.7897 30.9021 92.8038 30.8782 92.8222 30.8576C92.8405 30.8371 92.8626 30.8205 92.8873 30.8086C92.912 30.7968 92.9388 30.79 92.9661 30.7886C92.9934 30.7872 93.0207 30.7913 93.0464 30.8006C93.0722 30.8099 93.0958 30.8243 93.1161 30.8429C93.1363 30.8614 93.1527 30.8839 93.1644 30.9089C93.176 30.9339 93.1827 30.9609 93.184 30.9885C93.1852 31.0161 93.1811 31.0437 93.1718 31.0697C92.8911 31.8623 92.6409 32.6705 92.4282 33.4713C92.4161 33.5157 92.39 33.5549 92.3538 33.5829C92.3175 33.6108 92.2732 33.6259 92.2277 33.6259V33.6267ZM93.9122 28.8592C93.8829 28.8593 93.854 28.8529 93.8274 28.8407C93.7773 28.8178 93.7382 28.7758 93.7187 28.7237C93.6992 28.6717 93.7009 28.614 93.7235 28.5633C93.8932 28.1802 94.0738 27.7923 94.2602 27.4111C94.4466 27.0299 94.6452 26.6481 94.8503 26.2795C94.8773 26.231 94.9223 26.1952 94.9754 26.1802C95.0285 26.1652 95.0853 26.1721 95.1334 26.1994C95.1814 26.2267 95.2168 26.2722 95.2317 26.3259C95.2465 26.3796 95.2397 26.437 95.2127 26.4856C95.0111 26.8474 94.8162 27.2206 94.6327 27.597C94.4493 27.9734 94.2706 28.3566 94.1025 28.7351C94.0859 28.772 94.0591 28.8032 94.0253 28.8251C93.9915 28.8469 93.9522 28.8584 93.9122 28.8582V28.8592ZM115.953 27.4227C115.9 27.4225 115.85 27.4022 115.811 27.3658C115.773 27.3293 115.75 27.2795 115.746 27.2264C115.743 27.1733 115.759 27.1209 115.793 27.0797C115.826 27.0385 115.874 27.0116 115.926 27.0045C116.707 26.8995 117.263 26.4259 117.58 25.5957C117.59 25.5694 117.604 25.5453 117.623 25.5247C117.642 25.5041 117.664 25.4876 117.689 25.476C117.715 25.4644 117.742 25.458 117.769 25.4572C117.797 25.4563 117.825 25.4611 117.85 25.4712C117.876 25.4813 117.9 25.4965 117.92 25.5159C117.94 25.5353 117.956 25.5585 117.966 25.5842C117.977 25.6099 117.983 25.6376 117.983 25.6656C117.984 25.6935 117.978 25.7213 117.968 25.7471C117.597 26.7176 116.91 27.2965 115.981 27.421C115.971 27.4218 115.962 27.422 115.953 27.4216V27.4227ZM113.537 26.8926C113.506 26.8928 113.475 26.8856 113.446 26.8716C112.682 26.483 111.971 25.9959 111.331 25.4224C111.31 25.4043 111.293 25.3823 111.281 25.3576C111.269 25.3329 111.262 25.306 111.26 25.2785C111.258 25.251 111.261 25.2233 111.27 25.1972C111.279 25.171 111.292 25.1468 111.31 25.126C111.328 25.1052 111.35 25.0881 111.374 25.0758C111.399 25.0635 111.425 25.0562 111.453 25.0542C111.48 25.0523 111.507 25.0558 111.533 25.0646C111.559 25.0734 111.583 25.0872 111.604 25.1053C112.216 25.6551 112.897 26.1221 113.629 26.4946C113.671 26.5154 113.706 26.5501 113.726 26.593C113.746 26.636 113.751 26.6847 113.741 26.7311C113.73 26.7775 113.704 26.8189 113.667 26.8484C113.63 26.8779 113.584 26.8939 113.537 26.8936V26.8926ZM96.3804 24.4595C96.3421 24.4594 96.3046 24.4487 96.2719 24.4285C96.2393 24.4083 96.2128 24.3793 96.1954 24.3448C96.178 24.3104 96.1704 24.2717 96.1734 24.2331C96.1763 24.1945 96.1898 24.1575 96.2123 24.1262C96.7076 23.435 97.2444 22.7753 97.8197 22.1507C97.8576 22.1113 97.9092 22.0885 97.9635 22.0872C98.0178 22.0858 98.0705 22.106 98.1103 22.1435C98.15 22.1809 98.1737 22.2326 98.1762 22.2875C98.1787 22.3423 98.1598 22.396 98.1237 22.437C97.56 23.049 97.034 23.6955 96.5487 24.3727C96.5293 24.3994 96.504 24.4211 96.4747 24.436C96.4455 24.4509 96.4131 24.4586 96.3804 24.4584V24.4595ZM109.748 23.6316C109.717 23.6316 109.686 23.6243 109.657 23.6102C109.629 23.5962 109.604 23.5758 109.584 23.5505C109.061 22.8732 108.604 22.1466 108.218 21.3808C108.205 21.356 108.197 21.3289 108.194 21.3009C108.191 21.2729 108.194 21.2447 108.203 21.2178C108.211 21.191 108.224 21.1661 108.242 21.1446C108.26 21.1232 108.283 21.1056 108.307 21.0929C108.332 21.0803 108.359 21.0728 108.387 21.0709C108.415 21.0691 108.443 21.0728 108.469 21.0821C108.495 21.0913 108.519 21.1057 108.54 21.1246C108.561 21.1434 108.577 21.1662 108.589 21.1917C108.963 21.9335 109.406 22.6372 109.912 23.2932C109.936 23.3242 109.951 23.3614 109.955 23.4005C109.959 23.4396 109.952 23.4791 109.935 23.5145C109.918 23.5498 109.891 23.5796 109.858 23.6005C109.825 23.6213 109.787 23.6324 109.748 23.6324V23.6316ZM118.075 23.385C118.022 23.3851 117.971 23.3647 117.932 23.3279C117.893 23.2912 117.87 23.2409 117.867 23.1874C117.825 22.3686 117.626 21.5659 117.282 20.8238C117.268 20.7987 117.259 20.771 117.256 20.7424C117.253 20.7137 117.256 20.6848 117.264 20.6573C117.273 20.6299 117.287 20.6045 117.306 20.5827C117.324 20.561 117.347 20.5434 117.373 20.531C117.398 20.5185 117.426 20.5116 117.455 20.5105C117.483 20.5095 117.512 20.5144 117.538 20.5249C117.565 20.5354 117.589 20.5513 117.609 20.5716C117.629 20.5919 117.645 20.6162 117.656 20.6429C118.024 21.4334 118.237 22.2888 118.282 23.1613C118.285 23.2169 118.267 23.2715 118.23 23.3132C118.194 23.3549 118.142 23.3802 118.087 23.3835L118.075 23.385ZM99.7963 20.769C99.7535 20.769 99.7116 20.7557 99.6765 20.7308C99.6415 20.7059 99.6149 20.6706 99.6004 20.6299C99.5859 20.5891 99.5843 20.5448 99.5957 20.503C99.6071 20.4612 99.631 20.4241 99.6642 20.3966C100.317 19.8533 101.006 19.3563 101.727 18.9092C101.75 18.8925 101.776 18.8809 101.804 18.8749C101.832 18.8689 101.861 18.8688 101.888 18.8745C101.916 18.8803 101.943 18.8917 101.966 18.9082C101.989 18.9247 102.009 18.9459 102.024 18.9704C102.039 18.9949 102.049 19.0222 102.053 19.0507C102.057 19.0792 102.055 19.1082 102.047 19.1359C102.04 19.1637 102.027 19.1896 102.009 19.212C101.991 19.2344 101.969 19.2529 101.944 19.2662C101.239 19.7032 100.566 20.1889 99.9283 20.72C99.8912 20.7511 99.8445 20.768 99.7963 20.7679V20.769ZM107.523 19.1281C107.477 19.128 107.432 19.1123 107.395 19.0834C107.359 19.0544 107.333 19.014 107.322 18.9684C107.141 18.2408 107.049 17.4937 107.046 16.7435C107.046 16.6286 107.048 16.5137 107.053 16.3986C107.054 16.3709 107.06 16.3437 107.071 16.3185C107.082 16.2933 107.099 16.2706 107.119 16.2519C107.139 16.2331 107.163 16.2186 107.188 16.2092C107.214 16.1998 107.241 16.1957 107.269 16.1972C107.324 16.1994 107.376 16.2237 107.413 16.2646C107.45 16.3055 107.47 16.3598 107.468 16.4154C107.464 16.5249 107.462 16.6342 107.462 16.7435C107.464 17.4597 107.553 18.1731 107.725 18.8678C107.738 18.9219 107.73 18.9791 107.701 19.0267C107.673 19.0744 107.627 19.1087 107.573 19.122C107.557 19.1258 107.54 19.1275 107.523 19.127V19.1281ZM115.959 18.9445C115.909 18.9445 115.86 18.926 115.822 18.8924C115.206 18.3545 114.505 17.9242 113.749 17.6193C113.724 17.6088 113.701 17.5935 113.681 17.5741C113.662 17.5547 113.647 17.5316 113.636 17.5062C113.625 17.4807 113.62 17.4534 113.62 17.4259C113.62 17.3983 113.625 17.3709 113.635 17.3454C113.646 17.3198 113.661 17.2966 113.68 17.277C113.699 17.2574 113.722 17.2418 113.747 17.2311C113.772 17.2204 113.799 17.2149 113.827 17.2147C113.854 17.2146 113.881 17.2199 113.906 17.2303C114.705 17.5528 115.445 18.0078 116.096 18.5765C116.128 18.6047 116.151 18.642 116.161 18.6834C116.171 18.7249 116.169 18.7685 116.154 18.8085C116.139 18.8485 116.112 18.8829 116.078 18.9072C116.043 18.9315 116.002 18.9445 115.959 18.9445ZM104.06 18.1365C104.012 18.1365 103.966 18.1198 103.929 18.0892C103.892 18.0586 103.866 18.016 103.857 17.9685C103.847 17.9211 103.854 17.8718 103.876 17.8289C103.898 17.786 103.935 17.7523 103.979 17.7333C104.758 17.3969 105.562 17.123 106.383 16.9142C106.436 16.9018 106.492 16.9109 106.539 16.9396C106.585 16.9684 106.618 17.0144 106.632 17.0679C106.645 17.1213 106.637 17.1778 106.609 17.2253C106.582 17.2728 106.537 17.3074 106.484 17.3217C105.684 17.5251 104.9 17.792 104.141 18.1197C104.116 18.1304 104.088 18.1357 104.061 18.1355L104.06 18.1365ZM111.408 16.998C111.399 16.998 111.389 16.9974 111.38 16.9961C110.865 16.9272 110.346 16.893 109.826 16.8936C109.524 16.8936 109.226 16.9041 108.921 16.926C108.893 16.9289 108.865 16.9261 108.838 16.9178C108.812 16.9096 108.787 16.896 108.766 16.8779C108.744 16.8597 108.727 16.8375 108.714 16.8124C108.701 16.7873 108.694 16.7599 108.692 16.7318C108.69 16.7037 108.694 16.6755 108.703 16.6488C108.712 16.6222 108.726 16.5977 108.745 16.5767C108.763 16.5558 108.786 16.5388 108.811 16.5269C108.836 16.5149 108.864 16.5082 108.892 16.5072C109.206 16.4843 109.515 16.4704 109.827 16.4736C110.365 16.4729 110.902 16.5084 111.436 16.5799C111.488 16.587 111.536 16.6139 111.569 16.6551C111.602 16.6963 111.619 16.7488 111.615 16.8019C111.612 16.855 111.589 16.9048 111.55 16.9412C111.512 16.9776 111.461 16.9979 111.408 16.998H111.408ZM107.761 14.1446C107.728 14.1446 107.694 14.1363 107.665 14.1204C107.635 14.1046 107.609 14.0816 107.59 14.0535C107.571 14.0254 107.559 13.993 107.555 13.9592C107.551 13.9253 107.555 13.891 107.568 13.8592C107.661 13.6133 107.768 13.3671 107.887 13.1277C108.15 12.5981 108.441 12.0829 108.758 11.5843C108.788 11.5378 108.835 11.5052 108.889 11.4936C108.942 11.482 108.998 11.4923 109.044 11.5223C109.091 11.5524 109.123 11.5996 109.135 11.6538C109.147 11.708 109.137 11.7647 109.107 11.8115C108.798 12.2975 108.515 12.7996 108.259 13.3159C108.146 13.5431 108.044 13.7767 107.955 14.009C107.941 14.0488 107.914 14.0831 107.879 14.1074C107.845 14.1316 107.804 14.1446 107.761 14.1446ZM110.438 9.88434C110.398 9.88434 110.359 9.87274 110.326 9.85093C110.292 9.82911 110.265 9.798 110.249 9.7613C110.232 9.72461 110.227 9.68388 110.232 9.64399C110.238 9.6041 110.255 9.56672 110.281 9.53633C110.838 8.89307 111.436 8.28832 112.073 7.72615C112.115 7.68947 112.169 7.67101 112.224 7.67483C112.279 7.67865 112.331 7.70444 112.367 7.74652C112.403 7.7886 112.421 7.84353 112.418 7.89923C112.414 7.95492 112.388 8.00681 112.347 8.04349C111.724 8.59293 111.139 9.1843 110.595 9.81356C110.575 9.83595 110.551 9.85385 110.524 9.86606C110.497 9.87827 110.468 9.8845 110.438 9.88434ZM114.197 6.55023C114.152 6.55024 114.109 6.53583 114.073 6.50912C114.038 6.48241 114.011 6.4448 113.998 6.40183C113.985 6.35886 113.986 6.31279 114.001 6.27039C114.016 6.228 114.043 6.19152 114.08 6.16631C114.78 5.68908 115.506 5.25271 116.255 4.85934C116.28 4.84574 116.306 4.83719 116.334 4.83419C116.361 4.83119 116.389 4.8338 116.416 4.84187C116.442 4.84995 116.467 4.86331 116.489 4.88119C116.51 4.89906 116.528 4.92108 116.54 4.94594C116.553 4.97081 116.561 4.99802 116.563 5.02596C116.565 5.05391 116.562 5.08203 116.553 5.10867C116.545 5.1353 116.531 5.15991 116.513 5.18104C116.494 5.20217 116.472 5.2194 116.447 5.23171C115.712 5.6179 115 6.04613 114.313 6.51432C114.279 6.53772 114.238 6.55022 114.197 6.55023ZM118.635 4.20911C118.587 4.20914 118.54 4.19204 118.502 4.16077C118.465 4.12949 118.44 4.08602 118.431 4.03787C118.422 3.98972 118.43 3.93992 118.453 3.8971C118.477 3.85427 118.514 3.82111 118.56 3.80335C119.345 3.49367 120.146 3.22559 120.959 3.00022C121.012 2.98555 121.069 2.99282 121.117 3.02045C121.165 3.04808 121.2 3.0938 121.215 3.14755C121.229 3.20131 121.222 3.25869 121.195 3.30707C121.167 3.35546 121.122 3.39089 121.069 3.40557C120.269 3.62683 119.482 3.89028 118.71 4.19483C118.686 4.20428 118.661 4.20912 118.635 4.20911ZM130.806 3.06386C130.788 3.06386 130.771 3.06167 130.754 3.05735C129.995 2.86286 129.223 2.73082 128.444 2.66251C128.416 2.66003 128.39 2.65216 128.366 2.63935C128.342 2.62655 128.32 2.60905 128.303 2.58787C128.285 2.56669 128.272 2.54224 128.264 2.51591C128.256 2.48958 128.253 2.46189 128.255 2.43442C128.258 2.40695 128.266 2.38024 128.278 2.35581C128.291 2.33138 128.308 2.30971 128.329 2.29205C128.35 2.27438 128.374 2.26105 128.4 2.25283C128.426 2.24461 128.454 2.24166 128.481 2.24414C129.283 2.31467 130.077 2.4505 130.858 2.65033C130.907 2.66298 130.95 2.69332 130.978 2.73565C131.007 2.77798 131.019 2.82938 131.012 2.88019C131.006 2.93099 130.982 2.9777 130.944 3.01152C130.905 3.04535 130.857 3.06396 130.806 3.06386ZM123.464 2.87484C123.411 2.87514 123.361 2.8554 123.322 2.81957C123.284 2.78375 123.26 2.73449 123.256 2.68167C123.251 2.62885 123.267 2.57638 123.3 2.53477C123.332 2.49316 123.379 2.46549 123.431 2.45732C124.264 2.32028 125.104 2.23192 125.948 2.19269C125.975 2.19119 126.002 2.19521 126.028 2.20451C126.054 2.21382 126.078 2.22822 126.098 2.24687C126.118 2.26552 126.134 2.28806 126.146 2.31316C126.157 2.33825 126.164 2.36541 126.165 2.39305C126.166 2.4206 126.162 2.44813 126.152 2.47406C126.143 2.49999 126.129 2.52382 126.11 2.54418C126.092 2.56454 126.07 2.58103 126.045 2.59273C126.02 2.60442 125.994 2.61107 125.966 2.61231C125.139 2.65077 124.315 2.73751 123.497 2.87211C123.486 2.87358 123.475 2.87414 123.464 2.87379V2.87484Z" fill="#2743FD"/>
</svg>
