<?xml version="1.0" encoding="UTF-8"?>
<svg xmlns="http://www.w3.org/2000/svg" xmlns:xlink="http://www.w3.org/1999/xlink" viewBox="0 0 32 32" width="32px" height="32px">
<g id="surface43811981">
<path style=" stroke:none;fill-rule:nonzero;fill:rgb(0%,0%,0%);fill-opacity:1;" d="M 16 32 C 7.164062 32 0 24.835938 0 16 C 0 7.164062 7.164062 0 16 0 C 24.835938 0 32 7.164062 32 16 C 32 24.835938 24.835938 32 16 32 Z M 16 32 "/>
<path style=" stroke:none;fill-rule:nonzero;fill:rgb(92.54902%,94.117647%,94.509804%);fill-opacity:1;" d="M 15.9375 14.644531 L 15.9375 17.585938 L 20.128906 17.585938 C 19.582031 19.367188 18.09375 20.644531 15.9375 20.644531 C 13.371094 20.644531 11.292969 18.566406 11.292969 16 C 11.292969 13.433594 13.371094 11.355469 15.9375 11.355469 C 17.089844 11.355469 18.144531 11.777344 18.957031 12.476562 L 21.121094 10.308594 C 19.753906 9.058594 17.933594 8.300781 15.9375 8.300781 C 11.683594 8.300781 8.234375 11.746094 8.234375 16 C 8.234375 20.253906 11.683594 23.699219 15.9375 23.699219 C 22.402344 23.699219 23.828125 17.652344 23.195312 14.65625 Z M 15.9375 14.644531 "/>
</g>
</svg>
